<?xml version="1.0" encoding="UTF-8" standalone="no"?><!DOCTYPE svg PUBLIC "-//W3C//DTD SVG 1.1//EN" "http://www.w3.org/Graphics/SVG/1.1/DTD/svg11.dtd"><svg width="100%" height="100%" viewBox="0 0 2605 1667" version="1.1" xmlns="http://www.w3.org/2000/svg" xmlns:xlink="http://www.w3.org/1999/xlink" xml:space="preserve" xmlns:serif="http://www.serif.com/" style="fill-rule:evenodd;clip-rule:evenodd;stroke-linejoin:round;stroke-miterlimit:2;"><path d="M1301.29,651.129c-96.184,2.942 -173.6,80.358 -176.542,176.542c-3.196,104.704 83.163,191.067 187.871,187.866c96.158,-2.941 173.6,-80.383 176.542,-176.541c3.195,-104.704 -83.163,-191.067 -187.871,-187.867" style="fill:#fff;fill-rule:nonzero;"/><path d="M1261.38,885.721l0,-103.842c0,-10.496 11.363,-17.046 20.438,-11.804l89.929,51.929c9.092,5.238 9.092,18.354 0,23.592l-89.929,51.929c-9.075,5.242 -20.438,-1.325 -20.438,-11.804" style="fill-opacity:0.3;fill-rule:nonzero;"/><path d="M992.917,566.75c28.287,299.55 -191.496,565.321 -491.046,593.608l-0,0.429c-269.8,25.759 -474.967,244.021 -492.125,505.88l2594.42,-0l-0,-1666.67l-1244.26,-0c-233.687,79.187 -391.167,310.787 -366.783,567.154" style="fill:#c41718;fill-rule:nonzero;"/></svg>