<?xml version="1.0" encoding="UTF-8" standalone="no"?><!DOCTYPE svg PUBLIC "-//W3C//DTD SVG 1.1//EN" "http://www.w3.org/Graphics/SVG/1.1/DTD/svg11.dtd"><svg width="100%" height="100%" viewBox="0 0 63 63" version="1.1" xmlns="http://www.w3.org/2000/svg" xmlns:xlink="http://www.w3.org/1999/xlink" xml:space="preserve" xmlns:serif="http://www.serif.com/" style="fill-rule:evenodd;clip-rule:evenodd;stroke-linecap:round;stroke-linejoin:round;"><path d="M31.25,0c1.023,0 2.044,0.05 3.063,0.15c1.019,0.101 2.03,0.251 3.034,0.45c1.003,0.2 1.995,0.449 2.974,0.746c0.98,0.297 1.942,0.641 2.888,1.033c0.945,0.391 1.87,0.828 2.772,1.311c0.903,0.482 1.78,1.008 2.631,1.577c0.851,0.568 1.672,1.177 2.463,1.826c0.791,0.65 1.548,1.336 2.272,2.06c0.724,0.724 1.41,1.481 2.06,2.272c0.649,0.791 1.258,1.612 1.826,2.463c0.569,0.851 1.095,1.728 1.577,2.631c0.482,0.902 0.92,1.827 1.311,2.772c0.392,0.946 0.736,1.908 1.033,2.888c0.297,0.979 0.546,1.971 0.746,2.974c0.199,1.004 0.349,2.015 0.45,3.034c0.1,1.019 0.15,2.04 0.15,3.063c0,1.023 -0.05,2.044 -0.15,3.063c-0.101,1.019 -0.251,2.03 -0.45,3.034c-0.2,1.003 -0.449,1.995 -0.746,2.974c-0.297,0.98 -0.641,1.942 -1.033,2.888c-0.391,0.945 -0.829,1.87 -1.311,2.772c-0.482,0.903 -1.008,1.78 -1.577,2.631c-0.568,0.851 -1.177,1.672 -1.826,2.463c-0.65,0.791 -1.336,1.548 -2.06,2.272c-0.724,0.724 -1.481,1.41 -2.272,2.06c-0.791,0.649 -1.612,1.258 -2.463,1.826c-0.851,0.569 -1.728,1.095 -2.631,1.577c-0.902,0.482 -1.827,0.92 -2.772,1.311c-0.946,0.392 -1.908,0.736 -2.888,1.033c-0.979,0.297 -1.971,0.546 -2.974,0.746c-1.004,0.199 -2.015,0.349 -3.034,0.45c-1.019,0.1 -2.04,0.15 -3.063,0.15c-1.023,0 -2.044,-0.05 -3.063,-0.15c-1.019,-0.101 -2.03,-0.251 -3.034,-0.45c-1.003,-0.2 -1.995,-0.449 -2.974,-0.746c-0.98,-0.297 -1.942,-0.641 -2.888,-1.033c-0.945,-0.391 -1.87,-0.829 -2.772,-1.311c-0.903,-0.482 -1.78,-1.008 -2.631,-1.577c-0.851,-0.568 -1.672,-1.177 -2.463,-1.826c-0.791,-0.65 -1.548,-1.336 -2.272,-2.06c-0.724,-0.724 -1.41,-1.481 -2.06,-2.272c-0.649,-0.791 -1.258,-1.612 -1.826,-2.463c-0.569,-0.851 -1.095,-1.728 -1.577,-2.631c-0.483,-0.902 -0.92,-1.827 -1.311,-2.772c-0.392,-0.946 -0.736,-1.908 -1.033,-2.888c-0.297,-0.979 -0.546,-1.971 -0.746,-2.974c-0.199,-1.004 -0.349,-2.015 -0.45,-3.034c-0.1,-1.019 -0.15,-2.04 -0.15,-3.063c0,-1.023 0.05,-2.044 0.15,-3.063c0.101,-1.019 0.251,-2.03 0.45,-3.034c0.2,-1.003 0.449,-1.995 0.746,-2.974c0.297,-0.98 0.641,-1.942 1.033,-2.888c0.391,-0.945 0.828,-1.87 1.311,-2.772c0.482,-0.903 1.008,-1.78 1.577,-2.631c0.568,-0.851 1.177,-1.672 1.826,-2.463c0.65,-0.791 1.336,-1.548 2.06,-2.272c0.724,-0.724 1.481,-1.41 2.272,-2.06c0.791,-0.649 1.612,-1.258 2.463,-1.826c0.851,-0.569 1.728,-1.095 2.631,-1.577c0.902,-0.483 1.827,-0.92 2.772,-1.311c0.946,-0.392 1.908,-0.736 2.888,-1.033c0.979,-0.297 1.971,-0.546 2.974,-0.746c1.004,-0.199 2.015,-0.349 3.034,-0.45c1.019,-0.1 2.04,-0.15 3.063,-0.15Z" style="fill:#e1242a;fill-rule:nonzero;"/><path d="M28.125,21.875l9.375,9.375l-9.375,9.375" style="fill:none;fill-rule:nonzero;stroke:#fff;stroke-width:3.13px;"/></svg>