<?xml version="1.0" encoding="UTF-8" standalone="no"?><!DOCTYPE svg PUBLIC "-//W3C//DTD SVG 1.1//EN" "http://www.w3.org/Graphics/SVG/1.1/DTD/svg11.dtd"><svg width="100%" height="100%" viewBox="0 0 1371 655" version="1.1" xmlns="http://www.w3.org/2000/svg" xmlns:xlink="http://www.w3.org/1999/xlink" xml:space="preserve" xmlns:serif="http://www.serif.com/" style="fill-rule:evenodd;clip-rule:evenodd;stroke-linejoin:round;stroke-miterlimit:2;"><path d="M1306.7,430.708c-10.458,-3.925 -20.916,-6.862 -31.375,-9.154c1.309,-0.979 2.288,-1.633 2.942,-2.287c17.321,-13.071 32.354,-29.738 42.158,-49.35c9.804,-20.263 13.729,-42.813 11.113,-65.038c-1.959,-14.379 -6.209,-28.433 -12.746,-41.179c-13.071,-26.475 -35.296,-49.679 -64.058,-66.021c-76.476,-42.812 -189.559,-38.891 -276.167,-21.241c-25.167,4.9 -49.679,9.804 -74.192,14.054c5.884,-4.579 11.442,-9.809 16.017,-14.709c27.779,-30.72 37.583,-67 22.225,-105.566c-13.4,-33.338 -46.084,-47.063 -80.075,-48.042c-17.975,-0.654 -49.025,4.9 -67,5.883c-52.946,2.613 -89.55,-18.304 -141.517,-24.841c-41.833,-5.229 -88.896,-6.209 -127.462,13.729c-51.638,26.8 -70.921,99.679 -38.563,148.05c0.979,1.637 2.288,3.271 3.596,4.904c5.879,7.842 12.746,15.033 20.262,21.242c1.309,0.983 2.288,1.962 3.596,2.941c-95.108,-13.07 -193.154,-39.545 -294.8,-33.333c-58.829,3.592 -123.212,19.608 -169.95,57.192c-40.854,32.683 -64.058,91.512 -42.487,141.846c23.858,55.233 91.837,85.3 148.379,90.854c58.829,5.558 119.292,1.637 176.163,-11.763c66.995,-15.687 132.691,-23.533 201.325,-26.475c12.745,-0.654 25.491,-0.979 38.237,-1.633c-18.304,10.133 -34.317,23.533 -46.083,41.508c-54.909,83.013 18.304,183.35 129.75,196.096c64.383,7.517 125.829,-1.633 186.946,-17.65c57.845,-15.033 117.329,-33.337 179.429,-28.108c58.5,5.229 113.733,21.246 171.583,27.783c54.904,6.208 111.775,-14.383 143.804,-50.658c40.2,-46.413 39.217,-121.579 -31.05,-149.034" style="fill:#fff;fill-rule:nonzero;"/><path d="M96.138,367.304c-2.942,-2.942 -4.25,-7.517 -4.25,-13.729l-0,-91.837c-0,-5.884 1.308,-10.459 4.249,-13.725c2.942,-2.942 6.863,-4.576 12.421,-4.576l5.555,0c11.437,0 17.32,6.209 17.32,18.301l0,29.416l39.875,0l0,-29.416c0,-12.092 5.555,-18.301 16.342,-18.301l5.883,0c5.555,0 9.805,1.634 12.746,4.575c2.942,2.942 4.246,7.517 4.246,13.725l0,92.167c0,5.883 -1.304,10.458 -4.246,13.725c-2.941,2.942 -7.191,4.575 -12.746,4.575l-5.883,0c-5.229,0 -9.479,-1.633 -12.092,-4.575c-2.941,-2.942 -4.25,-7.517 -4.25,-13.725l0,-30.071l-39.875,0l0,30.071c0,5.883 -1.304,10.458 -4.245,13.725c-2.942,2.942 -7.192,4.575 -12.746,4.575l-5.559,0c-5.554,-0.325 -9.804,-1.633 -12.745,-4.9" style="fill:#c41718;fill-rule:nonzero;"/><path d="M286.679,329.392l-5.229,0.325c-15.363,0.329 -23.204,4.25 -23.204,11.766c-0,2.942 0.979,5.23 2.941,6.863c1.959,1.637 4.576,2.617 8.171,2.617c5.229,-0 9.15,-1.309 12.417,-3.921c3.271,-2.617 4.904,-6.213 5.229,-10.788l0,-6.862l-0.325,-0Zm-47.716,-7.846c10.129,-5.229 24.512,-8.171 43.791,-8.171l4.25,0c0,-0.979 0,-1.958 -0.325,-3.267c-0.983,-7.841 -5.883,-11.437 -14.708,-11.437c-9.804,-0 -16.342,3.921 -19.283,11.437c-0.325,0 -0.98,0.325 -1.959,0.325c-0.983,0 -2.291,0.329 -3.596,0.329c-4.904,0 -9.479,-0.979 -13.4,-2.941c-3.925,-1.963 -5.883,-5.554 -5.883,-10.784c0,-5.233 1.633,-9.808 5.229,-13.399c6.538,-7.846 20.263,-11.442 41.179,-11.442c17.321,-0 29.742,3.596 37.913,10.458c8.171,6.863 12.092,17.65 12.092,31.704l-0,54.255c-0,0.979 -1.634,1.958 -4.575,2.937c-2.942,0.983 -6.538,1.308 -10.134,1.308c-8.496,0 -14.704,-3.266 -18.3,-9.804c-1.308,-2.612 -1.962,-4.904 -2.287,-6.537c-3.271,5.229 -7.517,9.154 -13.4,12.095c-5.884,2.938 -12.092,4.246 -19.284,4.246c-9.804,0 -17.65,-2.612 -23.533,-7.516c-5.879,-4.9 -8.821,-11.767 -8.821,-20.263c-0.329,-10.133 4.9,-17.975 15.034,-23.533" style="fill:#c41718;fill-rule:nonzero;"/><path d="M398.454,300.629c-2.941,-2.942 -7.191,-4.575 -12.421,-4.575c-4.904,0 -9.15,1.633 -12.42,4.904c-3.267,3.267 -5.23,7.517 -5.884,12.746l35.625,0c0,-5.558 -1.633,-9.804 -4.9,-13.075m-56.541,-3.596c4.575,-7.841 10.458,-14.054 18.299,-18.629c7.846,-4.575 16.671,-6.533 26.476,-6.533c9.804,-0 18.299,1.958 25.816,6.208c7.517,4.25 13.4,9.804 17.65,17.321c4.25,7.192 6.209,15.687 6.209,24.837l-0,1.638c-0,2.942 -0.655,5.229 -1.959,6.863c-1.308,1.633 -2.941,2.287 -5.883,2.287l-61.771,0c0.325,1.308 0.654,2.288 0.654,2.613c1.308,4.579 3.921,8.17 7.842,10.787c3.925,2.613 8.825,3.921 14.383,3.921c5.554,-0 10.459,-0.979 14.379,-3.267c3.921,-2.287 6.863,-4.904 8.825,-8.5c0,-0.325 1.959,-0.325 5.229,0.654c3.267,0.654 6.209,2.288 8.825,4.25c2.613,2.288 3.921,5.229 3.921,9.804c0,3.267 -0.979,6.209 -2.941,9.15c-1.963,2.617 -4.575,5.23 -8.171,7.192c-7.517,4.25 -17.975,6.538 -31.375,6.538c-16.667,-0 -29.742,-4.575 -39.221,-13.4c-9.804,-8.825 -14.379,-21.246 -14.379,-36.605c0.654,-10.133 2.942,-18.958 7.192,-27.129" style="fill:#c41718;fill-rule:nonzero;"/><path d="M602.392,282.329c5.229,6.863 7.846,15.688 7.846,26.8l-0,44.775c-0,12.092 -5.559,18.3 -16.671,18.3l-3.921,0c-5.229,0 -9.479,-1.304 -12.417,-4.246c-2.941,-2.941 -4.579,-7.516 -4.579,-14.054l0,-37.912c0,-8.825 -3.921,-13.4 -11.437,-13.4c-5.23,-0 -9.48,2.287 -12.746,7.191l-0,44.121c-0,12.092 -5.559,18.3 -16.667,18.3l-3.596,0c-5.558,0 -9.804,-1.304 -12.746,-4.246c-2.941,-2.941 -4.579,-7.516 -4.579,-14.054l0,-37.912c0,-9.15 -3.921,-13.4 -11.437,-13.4c-2.613,-0 -4.9,0.654 -7.188,1.962c-2.291,1.304 -3.925,2.942 -5.558,5.229l-0,44.121c-0,12.092 -5.554,18.3 -16.667,18.3l-3.925,0c-5.229,0 -9.475,-1.304 -12.416,-4.246c-2.942,-2.941 -4.575,-7.516 -4.575,-14.054l-0,-76.479c-0,-0.654 1.633,-1.633 4.575,-2.613c2.941,-0.983 6.208,-1.637 9.804,-1.637c4.904,-0 9.479,1.308 13.4,3.925c3.921,2.612 6.537,6.862 8.171,13.071c3.595,-5.554 7.841,-10.129 12.745,-13.071c4.905,-3.271 10.784,-4.575 17.65,-4.575c15.359,-0 25.163,6.533 30.067,19.279c3.921,-6.208 8.171,-10.783 13.075,-14.05c4.9,-3.271 11.108,-4.904 18.629,-4.904c11.438,-0.654 19.934,2.617 25.163,9.479" style="fill:#c41718;fill-rule:nonzero;"/><path d="M689.983,306.842c-3.921,-4.25 -8.825,-6.213 -15.033,-6.213c-6.208,0 -11.112,1.963 -15.033,6.213c-3.925,4.246 -5.884,9.475 -5.884,16.012c0,6.538 1.959,12.092 5.884,16.017c3.921,4.246 8.82,6.208 15.033,6.208c5.883,0 11.112,-1.962 14.708,-6.208c3.921,-4.25 5.88,-9.479 5.88,-15.688c0.329,-6.866 -1.634,-12.096 -5.555,-16.341m-61.116,-10.788c4.25,-7.516 10.458,-13.4 18.629,-17.646c8.171,-4.25 17.321,-6.212 27.779,-6.212c10.458,-0 19.612,1.962 27.454,6.212c7.846,4.246 14.054,10.13 18.304,17.975c4.246,7.842 6.534,16.667 6.534,26.471c-0,10.134 -2.288,18.959 -6.534,26.8c-4.25,7.846 -10.458,13.725 -18.629,17.65c-8.171,4.246 -17.325,6.209 -27.783,6.209c-10.458,-0 -19.933,-1.963 -27.779,-6.209c-7.842,-4.25 -14.054,-10.133 -18.3,-17.65c-4.25,-7.841 -6.538,-16.666 -6.538,-27.125c0.325,-9.804 2.613,-18.629 6.863,-26.475" style="fill:#c41718;fill-rule:nonzero;"/><path d="M809.6,338.542c3.596,-3.921 5.229,-9.15 5.229,-15.688c0,-6.537 -1.633,-11.767 -5.229,-15.687c-3.271,-3.921 -7.846,-5.884 -13.729,-5.884c-4.246,0 -7.842,0.979 -10.783,2.942c-2.942,1.962 -5.23,4.575 -7.192,8.171l-0,16.012c-0,4.905 1.962,8.825 5.229,11.767c3.271,2.942 7.517,4.25 12.421,4.25c6.208,0 10.783,-1.963 14.054,-5.883m19.938,-60.463c6.533,4.25 11.762,10.129 15.358,17.65c3.596,7.517 5.558,16.667 5.558,26.8c0,9.804 -1.962,18.629 -5.558,26.471c-3.596,7.846 -8.825,13.725 -15.358,17.975c-6.538,4.25 -14.384,6.537 -23.209,6.537c-6.533,0 -12.091,-1.633 -16.991,-4.575c-4.905,-2.941 -8.5,-7.191 -11.113,-12.091l-0,33.987c-0,12.092 -5.558,17.975 -16.342,17.975l-3.921,0c-5.558,0 -9.808,-1.304 -12.75,-4.246c-2.937,-2.616 -4.575,-7.52 -4.575,-13.729l0,-113.408c0,-0.654 1.638,-1.633 4.576,-2.613c2.941,-0.983 6.212,-1.637 9.808,-1.637c4.9,-0 9.15,1.308 13.071,3.925c3.921,2.612 6.862,6.533 8.171,12.417c-0,0.329 0.329,1.308 0.329,2.287c2.287,-5.883 5.879,-10.458 11.108,-14.054c5.229,-3.592 11.442,-5.229 18.304,-5.229c9.479,-0.325 16.996,1.637 23.534,5.558" style="fill:#c41718;fill-rule:nonzero;"/><path d="M956.675,283.308c5.554,7.517 8.171,16.996 8.171,28.434l-0,42.162c-0,12.092 -5.558,18.3 -16.342,18.3l-3.921,0c-5.558,0 -9.808,-1.304 -12.75,-4.246c-2.937,-2.941 -4.575,-7.516 -4.575,-14.054l0,-36.604c0,-4.575 -0.979,-8.5 -3.266,-10.788c-2.288,-2.612 -5.229,-3.92 -8.825,-3.92c-4.575,-0 -8.171,1.308 -10.784,4.25c-2.616,2.612 -3.925,6.533 -3.925,11.437l0,35.625c0,12.092 -5.554,18.3 -16.666,18.3l-3.921,0c-5.229,0 -9.479,-1.304 -12.421,-4.246c-2.942,-2.941 -4.575,-7.516 -4.575,-14.054l0,-116.35c0,-0.654 1.633,-1.633 4.575,-2.617c2.942,-0.979 6.208,-1.633 9.804,-1.633c6.538,0 12.092,2.288 16.342,6.538c4.575,4.25 6.537,11.766 6.537,22.225l0,27.779c6.863,-11.767 16.667,-17.65 30.067,-17.65c12.421,-0 20.917,3.596 26.475,11.112" style="fill:#c41718;fill-rule:nonzero;"/><path d="M981.183,291.154c0,-6.212 1.634,-10.787 4.575,-13.729c2.942,-2.942 7.192,-4.25 12.421,-4.25l3.921,0c5.558,0 9.804,1.308 12.421,4.25c2.941,2.617 4.246,7.517 4.246,13.729l-0,62.75c-0,12.092 -5.554,18.3 -16.342,18.3l-3.921,0c-5.554,0 -9.804,-1.304 -12.746,-4.246c-2.941,-2.941 -4.575,-7.516 -4.575,-14.054l0,-62.75Zm4.25,-58.504c3.596,-3.267 8.496,-4.9 14.705,-4.9c6.212,-0 11.112,1.633 14.708,4.9c3.596,3.267 5.558,7.517 5.558,13.075c0,5.554 -1.637,9.804 -5.229,13.071c-3.596,3.271 -8.5,4.904 -14.708,4.904c-6.209,-0 -11.113,-1.633 -14.709,-4.904c-3.596,-3.267 -5.554,-7.517 -5.554,-13.071c0,-5.558 1.634,-9.808 5.229,-13.075" style="fill:#c41718;fill-rule:nonzero;"/><path d="M1041.65,367.629c-2.942,-2.942 -4.575,-7.517 -4.575,-14.054l-0,-116.021c-0,-0.654 1.633,-1.633 4.575,-2.617c2.942,-0.979 6.212,-1.633 9.804,-1.633c6.538,0 12.096,2.288 16.671,6.538c4.575,4.25 6.862,11.766 6.862,22.225l0,91.837c0,12.092 -5.554,18.3 -16.666,18.3l-3.925,0c-5.555,-0.325 -9.805,-1.633 -12.746,-4.575" style="fill:#c41718;fill-rule:nonzero;"/><path d="M1091.98,291.154c0,-6.212 1.633,-10.787 4.575,-13.729c2.942,-2.942 7.192,-4.25 12.421,-4.25l3.921,0c5.554,0 9.804,1.308 12.421,4.25c2.941,2.617 4.245,7.517 4.245,13.729l0,62.75c0,12.092 -5.554,18.3 -16.341,18.3l-3.921,0c-5.554,0 -9.804,-1.304 -12.746,-4.246c-2.942,-2.941 -4.575,-7.516 -4.575,-14.054l0,-62.75Zm4.25,-58.504c3.596,-3.267 8.496,-4.9 14.704,-4.9c6.213,-0 11.113,1.633 14.709,4.9c3.595,3.267 5.558,7.517 5.558,13.075c-0,5.554 -1.638,9.804 -5.233,13.071c-3.592,3.271 -8.496,4.904 -14.705,4.904c-6.212,-0 -11.112,-1.633 -14.708,-4.904c-3.596,-3.267 -5.554,-7.517 -5.554,-13.071c-0.329,-5.558 1.633,-9.808 5.229,-13.075" style="fill:#c41718;fill-rule:nonzero;"/><path d="M1205.39,329.392l-5.23,0.325c-15.362,0.329 -23.204,4.25 -23.204,11.766c0,2.942 0.979,5.23 2.942,6.863c1.958,1.637 4.575,2.617 8.171,2.617c5.229,-0 9.15,-1.309 12.416,-3.921c3.271,-2.617 4.905,-6.213 5.23,-10.788l-0,-6.862l-0.325,-0Zm-47.717,-7.846c10.129,-5.229 24.512,-8.171 43.796,-8.171l4.246,0c-0,-0.979 -0,-1.958 -0.325,-3.267c-0.98,-7.841 -5.884,-11.437 -14.709,-11.437c-9.804,-0 -16.341,3.921 -19.283,11.437c-0.325,0 -0.979,0.325 -1.958,0.325c-0.984,0 -2.288,0.329 -3.596,0.329c-4.904,0 -9.479,-0.979 -13.4,-2.941c-3.921,-1.963 -5.884,-5.554 -5.884,-10.784c0,-5.233 1.634,-9.808 5.23,-13.399c6.537,-7.846 20.262,-11.442 41.179,-11.442c17.321,-0 29.741,3.596 37.912,10.458c8.171,6.863 12.092,17.65 12.092,31.704l-0,54.255c-0,0.979 -1.633,1.958 -4.575,2.937c-2.942,0.983 -6.538,1.308 -10.129,1.308c-8.5,0 -14.709,-3.266 -18.304,-9.804c-1.309,-2.612 -1.963,-4.904 -2.288,-6.537c-3.267,5.229 -7.517,9.154 -13.4,12.095c-5.883,2.938 -12.092,4.246 -19.283,4.246c-9.804,0 -17.65,-2.612 -23.529,-7.516c-5.884,-4.9 -8.825,-11.767 -8.825,-20.263c-0.33,-10.133 4.9,-17.975 15.033,-23.533" style="fill:#c41718;fill-rule:nonzero;"/><path d="M600.104,533.658c0,-2.941 0.983,-5.883 2.617,-8.825c1.958,-2.941 3.921,-5.554 6.208,-7.516c2.288,-1.963 3.596,-2.942 4.25,-2.288c4.25,3.921 9.804,7.192 16.996,10.129c7.188,2.942 13.725,4.25 20.263,4.25c11.437,0 17.32,-3.266 17.32,-9.804c0,-2.612 -0.979,-4.25 -2.612,-5.883c-1.963,-1.308 -3.925,-2.288 -6.538,-2.942c-2.616,-0.654 -6.862,-1.633 -13.075,-2.942c-12.745,-2.612 -23.204,-6.862 -30.72,-12.745c-7.517,-5.884 -11.438,-14.379 -11.438,-26.146c0,-13.071 4.575,-23.204 14.054,-30.396c9.475,-7.188 22.55,-11.113 39.871,-11.113c16.013,0 28.763,2.617 37.258,8.171c6.863,4.25 10.134,9.48 10.134,15.688c-0,3.271 -0.984,6.537 -2.942,9.479c-1.962,2.942 -4.25,5.558 -6.537,7.517c-2.288,1.962 -3.921,2.941 -4.25,2.616c-4.25,-3.925 -9.48,-7.191 -15.359,-9.804c-5.883,-2.616 -11.766,-3.925 -17.65,-3.925c-11.112,0 -16.666,3.271 -16.666,9.804c-0,2.617 1.304,4.58 3.92,5.884c2.613,1.308 7.188,2.616 13.4,3.925l5.555,1.304c13.729,2.942 24.512,7.192 32.358,13.4c7.842,6.212 11.437,14.383 11.437,25.167c0,13.725 -4.904,24.187 -14.379,31.704c-9.479,7.187 -23.858,10.783 -42.487,10.783c-18.304,0 -32.029,-3.267 -40.854,-9.479c-6.863,-3.592 -10.134,-9.15 -10.134,-16.013" style="fill:#c41718;fill-rule:nonzero;"/><path d="M783.454,492.804c-3.921,-4.25 -8.825,-6.208 -15.033,-6.208c-6.209,-0 -11.113,1.958 -15.034,6.208c-3.92,4.25 -5.883,9.479 -5.883,16.013c0,6.537 1.963,12.096 5.884,16.016c3.92,4.25 8.824,6.209 15.033,6.209c5.883,-0 11.112,-1.959 14.708,-6.209c3.921,-4.25 5.884,-9.479 5.884,-15.687c-0,-6.863 -1.963,-12.421 -5.559,-16.342m-61.442,-10.783c4.25,-7.521 10.459,-13.4 18.63,-17.65c8.171,-4.25 17.321,-6.208 27.779,-6.208c10.458,-0 19.608,1.958 27.454,6.208c7.846,4.25 14.054,10.129 18.304,17.975c4.246,7.842 6.534,16.667 6.534,26.471c-0,10.133 -2.288,18.958 -6.534,26.8c-4.25,7.846 -10.458,13.729 -18.629,17.65c-8.171,4.25 -17.325,6.208 -27.783,6.208c-10.459,0 -19.934,-1.958 -27.779,-6.208c-7.842,-4.25 -14.055,-10.13 -18.305,-17.65c-4.246,-7.842 -6.533,-16.667 -6.533,-27.125c0.325,-10.134 2.612,-18.954 6.862,-26.471" style="fill:#c41718;fill-rule:nonzero;"/><path d="M836.4,482.346c4.25,-7.846 10.458,-13.725 18.304,-17.975c7.842,-4.25 16.667,-6.538 26.471,-6.538c13.729,0 24.513,3.271 32.029,9.48c2.942,2.287 5.229,4.9 6.863,7.841c1.633,2.942 2.287,5.884 2.287,8.5c0,4.575 -1.304,7.842 -4.246,10.459c-2.941,2.612 -6.212,4.245 -9.804,5.229c-3.596,0.979 -5.558,0.979 -5.883,0.325c-3.271,-8.496 -9.479,-12.746 -18.959,-12.746c-5.883,-0 -10.458,1.962 -14.054,6.208c-3.591,3.925 -5.554,9.154 -5.554,15.363c0,6.537 1.963,11.437 5.554,15.687c3.596,3.921 8.5,6.209 14.054,6.209c4.575,-0 8.5,-1.305 11.767,-3.267c3.267,-2.288 5.554,-5.229 7.192,-9.15c-0,-0.329 0.654,-0.329 1.633,-0.329c1.963,-0 4.575,0.654 7.517,1.637c2.941,0.979 5.554,2.938 7.841,5.229c2.292,2.613 3.271,5.88 3.271,9.805c0,2.612 -0.654,5.229 -2.287,8.17c-1.634,2.942 -3.925,5.555 -7.192,7.842c-7.517,6.213 -17.975,9.479 -31.7,9.479c-10.133,0 -19.283,-2.287 -26.8,-6.537c-7.846,-4.25 -13.729,-10.129 -17.975,-17.975c-4.25,-7.846 -6.537,-16.667 -6.537,-26.475c-0.33,-10.129 1.958,-18.625 6.208,-26.471" style="fill:#c41718;fill-rule:nonzero;"/><path d="M934.121,476.788c-0,-6.209 1.633,-10.784 4.575,-13.725c2.942,-2.942 7.192,-4.25 12.421,-4.25l3.921,-0c5.558,-0 9.808,1.308 12.42,4.25c2.942,2.616 4.25,7.516 4.25,13.725l0,62.754c0,12.091 -5.558,18.3 -16.341,18.3l-3.921,-0c-5.558,-0 -9.808,-1.309 -12.75,-4.246c-2.942,-2.942 -4.575,-7.521 -4.575,-14.054l-0,-62.755Zm4.25,-58.499c3.596,-3.267 8.496,-4.905 14.708,-4.905c6.209,0 11.113,1.638 14.704,4.905c3.596,3.266 5.559,7.516 5.559,13.075c-0,5.554 -1.634,9.804 -5.229,13.07c-3.596,3.267 -8.5,4.905 -14.709,4.905c-6.208,-0 -11.112,-1.638 -14.708,-4.905c-3.592,-3.266 -5.554,-7.516 -5.554,-13.07c-0,-5.23 1.633,-9.809 5.229,-13.075" style="fill:#c41718;fill-rule:nonzero;"/><path d="M1048.18,486.596c-2.941,-2.942 -7.191,-4.575 -12.42,-4.575c-4.9,-0 -9.15,1.633 -12.417,4.9c-3.271,3.271 -5.229,7.517 -5.883,12.746l35.62,-0c-0.325,-5.884 -1.958,-10.129 -4.9,-13.071m-56.541,-3.596c4.575,-7.846 10.458,-14.054 18.304,-18.629c7.842,-4.575 16.667,-6.538 26.471,-6.538c9.804,0 18.304,1.963 25.821,6.209c7.516,4.25 13.4,9.808 17.645,17.325c4.25,7.187 6.213,15.687 6.213,24.837l-0,1.634c-0,2.941 -0.654,5.229 -1.963,6.862c-1.308,1.638 -2.941,2.288 -5.883,2.288l-61.771,-0c0.329,1.308 0.654,2.291 0.654,2.616c1.309,4.575 3.921,8.171 7.846,10.784c3.921,2.616 8.825,3.925 14.379,3.925c5.555,-0 10.459,-0.984 14.38,-3.271c3.925,-2.288 6.862,-4.9 8.825,-8.496c-0,-0.329 1.962,-0.329 5.229,0.325c3.271,0.654 6.208,2.287 8.825,4.25c2.616,2.287 3.921,5.229 3.921,9.804c-0,3.271 -0.98,6.213 -2.942,9.154c-1.958,2.613 -4.575,5.229 -8.171,7.188c-7.517,4.25 -17.975,6.537 -31.375,6.537c-16.667,0 -29.742,-4.575 -39.217,-13.4c-9.804,-8.825 -14.383,-21.246 -14.383,-36.604c0.654,-10.133 2.942,-18.958 7.192,-26.8" style="fill:#c41718;fill-rule:nonzero;"/><path d="M1108.98,524.833l0,-36.604l-2.617,0c-4.9,0 -8.495,-0.979 -10.783,-3.267c-2.617,-2.287 -3.596,-5.229 -3.596,-9.479l0,-2.287c0,-4.25 1.308,-7.517 3.596,-10.134c2.612,-2.287 6.208,-3.595 10.783,-3.595l2.617,-0l0,-9.475c0,-5.884 1.304,-10.459 4.246,-13.4c2.941,-2.942 7.191,-4.575 12.421,-4.575l3.266,-0c5.559,-0 9.479,1.304 12.421,3.921c2.942,2.612 4.25,7.187 4.25,14.054l0,9.475l11.113,-0c9.804,-0 14.704,4.25 14.704,12.745l-0,2.292c-0,9.15 -4.9,13.4 -15.034,13.4l-11.437,0l-0,32.354c-0,6.538 2.612,9.804 8.171,9.804c4.246,0 7.841,-1.962 10.458,-6.208c0.654,0 1.633,0.654 2.942,1.634c1.308,1.308 2.612,2.941 3.596,4.904c0.979,1.958 1.633,4.575 1.633,7.187c-0,4.904 -1.633,9.479 -5.229,13.075c-2.617,2.613 -5.884,4.575 -9.804,6.208c-4.25,1.309 -8.825,2.288 -14.055,2.288c-22.55,0.329 -33.662,-11.112 -33.662,-34.317" style="fill:#c41718;fill-rule:nonzero;"/><path d="M1211.6,591.504c-3.271,-1.304 -5.883,-2.941 -7.846,-4.575c-1.962,-1.633 -2.942,-2.941 -2.287,-3.596l15.687,-33.333c-4.904,-0.983 -8.171,-3.271 -9.479,-7.192l-32.029,-73.208c-0.325,-0.654 0.654,-1.962 2.942,-3.596c2.287,-1.962 4.904,-3.596 8.17,-4.904c3.271,-1.633 6.538,-2.288 10.134,-2.288c9.475,0 16.012,5.884 19.283,17.326l14.379,42.487l13.4,-42.487c1.963,-6.213 4.575,-10.459 7.842,-13.075c3.271,-2.613 7.192,-3.921 11.442,-3.921c3.266,-0 6.537,0.654 9.804,2.287c3.266,1.308 5.883,2.942 8.171,4.9c1.958,1.963 2.941,3.271 2.612,3.925l-42.158,107.2c-2.288,5.879 -5.229,10.129 -8.5,12.746c-3.267,2.613 -7.188,3.921 -11.438,3.921c-3.596,-0.654 -6.862,-1.308 -10.129,-2.617" style="fill:#c41718;fill-rule:nonzero;"/><path d="M571.346,92.771l-21.246,-0c-5.883,-0 -10.458,-1.308 -13.4,-4.25c-2.942,-2.942 -4.575,-7.192 -4.575,-12.746l0,-0.654c0,-5.229 1.633,-9.479 4.575,-12.092c2.942,-2.617 7.517,-4.25 13.4,-4.25l80.729,0c12.092,0 18.3,5.554 18.3,16.342l0,0.654c0,11.438 -6.208,16.996 -18.3,16.996l-20.267,-0l0,75.167c0,5.883 -1.633,10.458 -4.575,13.4c-2.941,3.27 -7.187,4.575 -12.745,4.575l-5.554,-0c-10.788,-0 -16.342,-6.209 -16.342,-18.3l-0,-74.842Z" style="fill:#c41718;fill-rule:nonzero;"/><path d="M752.733,97.671c5.559,7.516 8.171,16.996 8.171,28.433l0,42.163c0,12.091 -5.554,18.3 -16.341,18.3l-3.921,-0c-5.559,-0 -9.804,-1.309 -12.746,-4.246c-2.942,-2.942 -4.575,-7.521 -4.575,-14.054l-0,-36.604c-0,-4.58 -0.983,-8.5 -3.271,-11.113c-2.288,-2.617 -5.229,-3.925 -8.825,-3.925c-4.575,0 -8.171,1.308 -10.783,4.25c-2.617,2.617 -3.921,6.538 -3.921,11.438l-0,35.625c-0,12.091 -5.558,18.304 -16.671,18.304l-3.921,-0c-5.229,-0 -9.479,-1.309 -12.421,-4.25c-2.941,-2.942 -4.575,-7.517 -4.575,-14.054l0,-116.021c0,-0.654 1.634,-1.638 4.575,-2.617c2.942,-0.979 6.213,-1.633 9.809,-1.633c6.533,-0 12.091,2.287 16.337,6.537c4.579,4.246 6.538,11.763 6.538,22.221l-0,27.783c6.862,-11.766 16.671,-17.65 30.071,-17.65c12.091,-0.325 20.916,3.596 26.47,11.113" style="fill:#c41718;fill-rule:nonzero;"/><path d="M836.075,114.992c-2.942,-2.942 -7.192,-4.575 -12.421,-4.575c-4.9,-0 -9.15,1.633 -12.416,4.904c-3.271,3.267 -5.23,7.517 -5.884,12.746l35.625,-0c0,-5.884 -1.637,-10.134 -4.904,-13.075m-56.212,-3.596c4.575,-7.842 10.458,-14.05 18.3,-18.629c7.845,-4.575 16.67,-6.534 26.475,-6.534c9.804,0 18.3,1.959 25.816,6.209c7.517,4.25 13.4,9.804 17.65,17.32c4.25,7.192 6.209,15.688 6.209,24.842l-0,1.633c-0,2.942 -0.655,5.23 -1.959,6.863c-0.983,1.633 -2.941,2.287 -5.883,2.287l-61.771,0c0.325,1.309 0.654,2.288 0.654,2.617c1.309,4.575 3.921,8.167 7.842,10.784c3.925,2.612 8.825,3.92 14.383,3.92c5.554,0 10.459,-0.979 14.379,-3.266c3.921,-2.288 6.863,-4.904 8.825,-8.5c0,-0.325 1.959,-0.325 5.23,0.329c3.266,0.654 6.208,2.287 8.825,4.25c2.612,2.287 3.92,5.229 3.92,9.804c0,3.267 -0.979,6.208 -2.941,9.15c-1.963,2.617 -4.575,5.229 -8.171,7.192c-7.517,4.246 -17.975,6.533 -31.375,6.533c-16.667,0 -29.742,-4.575 -39.221,-13.4c-9.804,-8.821 -14.379,-21.242 -14.379,-36.604c0.325,-10.129 2.612,-18.954 7.192,-26.8" style="fill:#c41718;fill-rule:nonzero;"/></svg>