<?xml version="1.0" encoding="UTF-8" standalone="no"?><!DOCTYPE svg PUBLIC "-//W3C//DTD SVG 1.1//EN" "http://www.w3.org/Graphics/SVG/1.1/DTD/svg11.dtd"><svg width="100%" height="100%" viewBox="0 0 329 157" version="1.1" xmlns="http://www.w3.org/2000/svg" xmlns:xlink="http://www.w3.org/1999/xlink" xml:space="preserve" xmlns:serif="http://www.serif.com/" style="fill-rule:evenodd;clip-rule:evenodd;stroke-linejoin:round;stroke-miterlimit:2;"><path d="M313.609,103.37c-2.51,-0.942 -5.02,-1.647 -7.53,-2.197c0.314,-0.235 0.549,-0.392 0.706,-0.549c4.157,-3.137 7.765,-7.137 10.118,-11.844c2.353,-4.863 3.295,-10.275 2.667,-15.609c-0.47,-3.451 -1.49,-6.824 -3.059,-9.883c-3.137,-6.354 -8.471,-11.923 -15.374,-15.845c-18.354,-10.275 -45.494,-9.334 -66.28,-5.098c-6.04,1.176 -11.923,2.353 -17.806,3.373c1.412,-1.099 2.746,-2.354 3.844,-3.53c6.667,-7.373 9.02,-16.08 5.334,-25.336c-3.216,-8.001 -11.06,-11.295 -19.218,-11.53c-4.314,-0.157 -11.766,1.176 -16.08,1.412c-12.707,0.627 -21.492,-4.393 -33.964,-5.962c-10.04,-1.255 -21.335,-1.49 -30.591,3.295c-12.393,6.432 -17.021,23.923 -9.255,35.532c0.235,0.393 0.549,0.785 0.863,1.177c1.411,1.882 3.059,3.608 4.863,5.098c0.314,0.236 0.549,0.471 0.863,0.706c-22.826,-3.137 -46.357,-9.491 -70.752,-8c-14.119,0.862 -29.571,4.706 -40.788,13.726c-9.805,7.844 -15.374,21.963 -10.197,34.043c5.726,13.256 22.041,20.472 35.611,21.805c14.119,1.334 28.63,0.393 42.279,-2.823c16.079,-3.765 31.846,-5.648 48.318,-6.354c3.059,-0.157 6.118,-0.235 9.177,-0.392c-4.393,2.432 -8.236,5.648 -11.06,9.962c-13.178,19.923 4.393,44.004 31.14,47.063c15.452,1.804 30.199,-0.392 44.867,-4.236c13.883,-3.608 28.159,-8.001 43.063,-6.746c14.04,1.255 27.296,5.099 41.18,6.668c13.177,1.49 26.826,-3.452 34.513,-12.158c9.648,-11.139 9.412,-29.179 -7.452,-35.768" style="fill:#d31116;fill-rule:nonzero;"/><path d="M23.073,88.153c-0.706,-0.706 -1.02,-1.804 -1.02,-3.295l0,-22.041c0,-1.412 0.314,-2.51 1.02,-3.294c0.706,-0.706 1.647,-1.098 2.981,-1.098l1.333,-0c2.745,-0 4.157,1.49 4.157,4.392l0,7.06l9.57,-0l-0,-7.06c-0,-2.902 1.333,-4.392 3.922,-4.392l1.412,-0c1.333,-0 2.353,0.392 3.059,1.098c0.706,0.706 1.019,1.804 1.019,3.294l0,22.12c0,1.412 -0.313,2.51 -1.019,3.294c-0.706,0.706 -1.726,1.098 -3.059,1.098l-1.412,0c-1.255,0 -2.275,-0.392 -2.902,-1.098c-0.706,-0.706 -1.02,-1.804 -1.02,-3.294l-0,-7.217l-9.57,0l0,7.217c0,1.412 -0.313,2.51 -1.019,3.294c-0.706,0.706 -1.726,1.098 -3.059,1.098l-1.334,0c-1.333,-0.078 -2.353,-0.392 -3.059,-1.176" style="fill:#fff;fill-rule:nonzero;"/><path d="M68.803,79.054l-1.255,0.078c-3.687,0.079 -5.569,1.02 -5.569,2.824c-0,0.706 0.235,1.255 0.706,1.647c0.47,0.393 1.098,0.628 1.961,0.628c1.255,-0 2.196,-0.314 2.98,-0.941c0.785,-0.628 1.177,-1.491 1.255,-2.589l0,-1.647l-0.078,-0Zm-11.452,-1.883c2.431,-1.255 5.883,-1.961 10.51,-1.961l1.02,0c0,-0.235 0,-0.47 -0.078,-0.784c-0.236,-1.882 -1.412,-2.745 -3.53,-2.745c-2.353,-0 -3.922,0.941 -4.628,2.745c-0.078,0 -0.235,0.078 -0.47,0.078c-0.236,0 -0.55,0.079 -0.863,0.079c-1.177,-0 -2.275,-0.235 -3.216,-0.706c-0.942,-0.471 -1.412,-1.333 -1.412,-2.588c-0,-1.256 0.392,-2.354 1.255,-3.216c1.569,-1.883 4.863,-2.746 9.883,-2.746c4.157,0 7.138,0.863 9.099,2.51c1.961,1.647 2.902,4.236 2.902,7.609l0,13.021c0,0.235 -0.392,0.47 -1.098,0.705c-0.706,0.236 -1.569,0.314 -2.432,0.314c-2.039,0 -3.529,-0.784 -4.392,-2.353c-0.314,-0.627 -0.471,-1.177 -0.549,-1.569c-0.785,1.255 -1.804,2.197 -3.216,2.903c-1.412,0.705 -2.902,1.019 -4.628,1.019c-2.353,0 -4.236,-0.627 -5.648,-1.804c-1.411,-1.176 -2.117,-2.824 -2.117,-4.863c-0.079,-2.432 1.176,-4.314 3.608,-5.648" style="fill:#fff;fill-rule:nonzero;"/><path d="M95.629,72.151c-0.706,-0.706 -1.726,-1.098 -2.981,-1.098c-1.177,-0 -2.196,0.392 -2.981,1.177c-0.784,0.784 -1.255,1.804 -1.412,3.059l8.55,-0c0,-1.334 -0.392,-2.353 -1.176,-3.138m-13.57,-0.863c1.098,-1.882 2.51,-3.373 4.392,-4.471c1.883,-1.098 4.001,-1.568 6.354,-1.568c2.353,-0 4.392,0.47 6.196,1.49c1.804,1.02 3.216,2.353 4.236,4.157c1.02,1.726 1.49,3.765 1.49,5.961l0,0.393c0,0.706 -0.157,1.255 -0.47,1.647c-0.314,0.392 -0.706,0.549 -1.412,0.549l-14.825,-0c0.078,0.314 0.157,0.549 0.157,0.627c0.314,1.099 0.941,1.961 1.882,2.589c0.942,0.627 2.118,0.941 3.452,0.941c1.333,0 2.51,-0.235 3.451,-0.784c0.941,-0.549 1.647,-1.177 2.118,-2.04c-0,-0.078 0.47,-0.078 1.255,0.157c0.784,0.157 1.49,0.549 2.118,1.02c0.627,0.549 0.941,1.255 0.941,2.353c-0,0.784 -0.235,1.49 -0.706,2.196c-0.471,0.628 -1.098,1.255 -1.961,1.726c-1.804,1.02 -4.314,1.569 -7.53,1.569c-4,-0 -7.138,-1.098 -9.413,-3.216c-2.353,-2.118 -3.451,-5.099 -3.451,-8.785c0.157,-2.432 0.706,-4.55 1.726,-6.511" style="fill:#fff;fill-rule:nonzero;"/><path d="M144.574,67.759c1.255,1.647 1.883,3.765 1.883,6.432l-0,10.746c-0,2.902 -1.334,4.392 -4.001,4.392l-0.941,0c-1.255,0 -2.275,-0.313 -2.98,-1.019c-0.706,-0.706 -1.099,-1.804 -1.099,-3.373l0,-9.099c0,-2.118 -0.941,-3.216 -2.745,-3.216c-1.255,-0 -2.275,0.549 -3.059,1.726l-0,10.589c-0,2.902 -1.334,4.392 -4,4.392l-0.863,0c-1.334,0 -2.353,-0.313 -3.059,-1.019c-0.706,-0.706 -1.099,-1.804 -1.099,-3.373l0,-9.099c0,-2.196 -0.941,-3.216 -2.745,-3.216c-0.627,-0 -1.176,0.157 -1.725,0.471c-0.55,0.313 -0.942,0.706 -1.334,1.255l0,10.589c0,2.902 -1.333,4.392 -4,4.392l-0.942,0c-1.255,0 -2.274,-0.313 -2.98,-1.019c-0.706,-0.706 -1.098,-1.804 -1.098,-3.373l-0,-18.355c-0,-0.157 0.392,-0.392 1.098,-0.627c0.706,-0.236 1.49,-0.393 2.353,-0.393c1.177,0 2.275,0.314 3.216,0.942c0.941,0.627 1.569,1.647 1.961,3.137c0.863,-1.333 1.882,-2.431 3.059,-3.137c1.177,-0.785 2.588,-1.098 4.236,-1.098c3.686,-0 6.039,1.568 7.216,4.627c0.941,-1.49 1.961,-2.588 3.138,-3.372c1.176,-0.785 2.666,-1.177 4.471,-1.177c2.745,-0.157 4.784,0.628 6.039,2.275" style="fill:#fff;fill-rule:nonzero;"/><path d="M165.596,73.642c-0.941,-1.02 -2.118,-1.491 -3.608,-1.491c-1.49,0 -2.667,0.471 -3.608,1.491c-0.942,1.019 -1.412,2.274 -1.412,3.843c-0,1.569 0.47,2.902 1.412,3.844c0.941,1.019 2.117,1.49 3.608,1.49c1.412,-0 2.667,-0.471 3.53,-1.49c0.941,-1.02 1.411,-2.275 1.411,-3.765c0.079,-1.648 -0.392,-2.903 -1.333,-3.922m-14.668,-2.589c1.02,-1.804 2.51,-3.216 4.471,-4.235c1.961,-1.02 4.157,-1.491 6.667,-1.491c2.51,0 4.707,0.471 6.589,1.491c1.883,1.019 3.373,2.431 4.393,4.314c1.019,1.882 1.568,4 1.568,6.353c0,2.432 -0.549,4.55 -1.568,6.432c-1.02,1.883 -2.51,3.294 -4.471,4.236c-1.961,1.019 -4.158,1.49 -6.668,1.49c-2.51,0 -4.784,-0.471 -6.667,-1.49c-1.882,-1.02 -3.373,-2.432 -4.392,-4.236c-1.02,-1.882 -1.569,-4 -1.569,-6.51c0.078,-2.353 0.627,-4.471 1.647,-6.354" style="fill:#fff;fill-rule:nonzero;"/><path d="M194.304,81.25c0.863,-0.941 1.255,-2.196 1.255,-3.765c-0,-1.569 -0.392,-2.824 -1.255,-3.765c-0.785,-0.941 -1.883,-1.412 -3.295,-1.412c-1.019,0 -1.882,0.235 -2.588,0.706c-0.706,0.471 -1.255,1.098 -1.726,1.961l0,3.843c0,1.177 0.471,2.118 1.255,2.824c0.785,0.706 1.804,1.02 2.981,1.02c1.49,-0 2.588,-0.471 3.373,-1.412m4.785,-14.511c1.568,1.02 2.823,2.431 3.686,4.236c0.863,1.804 1.334,4 1.334,6.432c-0,2.353 -0.471,4.471 -1.334,6.353c-0.863,1.883 -2.118,3.294 -3.686,4.314c-1.569,1.02 -3.452,1.569 -5.57,1.569c-1.568,-0 -2.902,-0.392 -4.078,-1.098c-1.177,-0.706 -2.04,-1.726 -2.667,-2.902l-0,8.157c-0,2.902 -1.334,4.314 -3.922,4.314l-0.941,0c-1.334,0 -2.354,-0.313 -3.06,-1.019c-0.705,-0.628 -1.098,-1.805 -1.098,-3.295l0,-27.218c0,-0.157 0.393,-0.392 1.098,-0.627c0.706,-0.236 1.491,-0.393 2.354,-0.393c1.176,0 2.196,0.314 3.137,0.942c0.941,0.627 1.647,1.568 1.961,2.98c0,0.079 0.079,0.314 0.079,0.549c0.549,-1.412 1.411,-2.51 2.666,-3.373c1.255,-0.862 2.746,-1.255 4.393,-1.255c2.275,-0.078 4.079,0.393 5.648,1.334" style="fill:#fff;fill-rule:nonzero;"/><path d="M229.602,67.994c1.333,1.804 1.961,4.079 1.961,6.824l-0,10.119c-0,2.902 -1.334,4.392 -3.922,4.392l-0.941,0c-1.334,0 -2.354,-0.313 -3.06,-1.019c-0.705,-0.706 -1.098,-1.804 -1.098,-3.373l0,-8.785c0,-1.098 -0.235,-2.04 -0.784,-2.589c-0.549,-0.627 -1.255,-0.941 -2.118,-0.941c-1.098,-0 -1.961,0.314 -2.588,1.02c-0.628,0.627 -0.942,1.568 -0.942,2.745l0,8.55c0,2.902 -1.333,4.392 -4,4.392l-0.941,0c-1.255,0 -2.275,-0.313 -2.981,-1.019c-0.706,-0.706 -1.098,-1.804 -1.098,-3.373l-0,-27.924c-0,-0.157 0.392,-0.392 1.098,-0.628c0.706,-0.235 1.49,-0.392 2.353,-0.392c1.569,0 2.902,0.549 3.922,1.569c1.098,1.02 1.569,2.824 1.569,5.334l-0,6.667c1.647,-2.824 4,-4.236 7.216,-4.236c2.981,0 5.02,0.863 6.354,2.667" style="fill:#fff;fill-rule:nonzero;"/><path d="M235.484,69.877c-0,-1.491 0.392,-2.589 1.098,-3.295c0.706,-0.706 1.726,-1.02 2.981,-1.02l0.941,0c1.334,0 2.353,0.314 2.981,1.02c0.706,0.628 1.019,1.804 1.019,3.295l0,15.06c0,2.902 -1.333,4.392 -3.922,4.392l-0.941,0c-1.333,0 -2.353,-0.313 -3.059,-1.019c-0.706,-0.706 -1.098,-1.804 -1.098,-3.373l-0,-15.06Zm1.02,-14.041c0.863,-0.784 2.039,-1.176 3.529,-1.176c1.491,-0 2.667,0.392 3.53,1.176c0.863,0.784 1.334,1.804 1.334,3.138c-0,1.333 -0.393,2.353 -1.255,3.137c-0.863,0.785 -2.04,1.177 -3.53,1.177c-1.49,-0 -2.667,-0.392 -3.53,-1.177c-0.863,-0.784 -1.333,-1.804 -1.333,-3.137c-0,-1.334 0.392,-2.354 1.255,-3.138" style="fill:#fff;fill-rule:nonzero;"/><path d="M249.995,88.231c-0.706,-0.706 -1.098,-1.804 -1.098,-3.373l0,-27.845c0,-0.157 0.392,-0.392 1.098,-0.628c0.706,-0.235 1.491,-0.392 2.353,-0.392c1.569,0 2.903,0.549 4.001,1.569c1.098,1.02 1.647,2.824 1.647,5.334l-0,22.041c-0,2.902 -1.333,4.392 -4,4.392l-0.942,0c-1.333,-0.078 -2.353,-0.392 -3.059,-1.098" style="fill:#fff;fill-rule:nonzero;"/><path d="M262.075,69.877c-0,-1.491 0.392,-2.589 1.098,-3.295c0.706,-0.706 1.726,-1.02 2.981,-1.02l0.941,0c1.333,0 2.353,0.314 2.981,1.02c0.706,0.628 1.019,1.804 1.019,3.295l0,15.06c0,2.902 -1.333,4.392 -3.922,4.392l-0.941,0c-1.333,0 -2.353,-0.313 -3.059,-1.019c-0.706,-0.706 -1.098,-1.804 -1.098,-3.373l-0,-15.06l-0,-0Zm1.02,-14.041c0.863,-0.784 2.039,-1.176 3.529,-1.176c1.491,-0 2.667,0.392 3.53,1.176c0.863,0.784 1.334,1.804 1.334,3.138c-0,1.333 -0.393,2.353 -1.256,3.137c-0.862,0.785 -2.039,1.177 -3.529,1.177c-1.491,-0 -2.667,-0.392 -3.53,-1.177c-0.863,-0.784 -1.333,-1.804 -1.333,-3.137c-0.079,-1.334 0.392,-2.354 1.255,-3.138" style="fill:#fff;fill-rule:nonzero;"/><path d="M289.293,79.054l-1.255,0.078c-3.687,0.079 -5.569,1.02 -5.569,2.824c-0,0.706 0.235,1.255 0.706,1.647c0.47,0.393 1.098,0.628 1.961,0.628c1.255,-0 2.196,-0.314 2.98,-0.941c0.785,-0.628 1.177,-1.491 1.255,-2.589l0,-1.647l-0.078,-0Zm-11.452,-1.883c2.431,-1.255 5.883,-1.961 10.511,-1.961l1.019,0c0,-0.235 0,-0.47 -0.078,-0.784c-0.235,-1.882 -1.412,-2.745 -3.53,-2.745c-2.353,-0 -3.922,0.941 -4.628,2.745c-0.078,0 -0.235,0.078 -0.47,0.078c-0.236,0 -0.549,0.079 -0.863,0.079c-1.177,-0 -2.275,-0.235 -3.216,-0.706c-0.941,-0.471 -1.412,-1.333 -1.412,-2.588c0,-1.256 0.392,-2.354 1.255,-3.216c1.569,-1.883 4.863,-2.746 9.883,-2.746c4.157,0 7.138,0.863 9.099,2.51c1.961,1.647 2.902,4.236 2.902,7.609l0,13.021c0,0.235 -0.392,0.47 -1.098,0.705c-0.706,0.236 -1.569,0.314 -2.431,0.314c-2.04,0 -3.53,-0.784 -4.393,-2.353c-0.314,-0.627 -0.471,-1.177 -0.549,-1.569c-0.784,1.255 -1.804,2.197 -3.216,2.903c-1.412,0.705 -2.902,1.019 -4.628,1.019c-2.353,0 -4.236,-0.627 -5.647,-1.804c-1.412,-1.176 -2.118,-2.824 -2.118,-4.863c-0.079,-2.432 1.176,-4.314 3.608,-5.648" style="fill:#fff;fill-rule:nonzero;"/><path d="M144.025,128.078c0,-0.706 0.236,-1.412 0.628,-2.118c0.47,-0.706 0.941,-1.333 1.49,-1.804c0.549,-0.471 0.863,-0.706 1.02,-0.549c1.02,0.941 2.353,1.726 4.079,2.431c1.725,0.706 3.294,1.02 4.863,1.02c2.745,0 4.157,-0.784 4.157,-2.353c0,-0.627 -0.235,-1.02 -0.627,-1.412c-0.471,-0.314 -0.942,-0.549 -1.569,-0.706c-0.628,-0.157 -1.647,-0.392 -3.138,-0.706c-3.059,-0.627 -5.569,-1.647 -7.373,-3.059c-1.804,-1.412 -2.745,-3.451 -2.745,-6.275c-0,-3.137 1.098,-5.569 3.373,-7.295c2.274,-1.725 5.412,-2.667 9.569,-2.667c3.843,0 6.903,0.628 8.942,1.961c1.647,1.02 2.432,2.275 2.432,3.765c-0,0.785 -0.236,1.569 -0.706,2.275c-0.471,0.706 -1.02,1.334 -1.569,1.804c-0.549,0.471 -0.941,0.706 -1.02,0.628c-1.02,-0.942 -2.275,-1.726 -3.686,-2.353c-1.412,-0.628 -2.824,-0.942 -4.236,-0.942c-2.667,0 -4,0.785 -4,2.353c-0,0.628 0.313,1.099 0.941,1.412c0.627,0.314 1.725,0.628 3.216,0.942l1.333,0.313c3.295,0.706 5.883,1.726 7.766,3.216c1.882,1.491 2.745,3.452 2.745,6.04c-0,3.294 -1.177,5.805 -3.451,7.609c-2.275,1.725 -5.726,2.588 -10.197,2.588c-4.393,0 -7.687,-0.784 -9.805,-2.275c-1.647,-0.862 -2.432,-2.196 -2.432,-3.843" style="fill:#fff;fill-rule:nonzero;"/><path d="M188.029,118.273c-0.941,-1.02 -2.118,-1.49 -3.608,-1.49c-1.49,-0 -2.667,0.47 -3.608,1.49c-0.941,1.02 -1.412,2.275 -1.412,3.843c0,1.569 0.471,2.903 1.412,3.844c0.941,1.02 2.118,1.49 3.608,1.49c1.412,0 2.667,-0.47 3.53,-1.49c0.941,-1.02 1.412,-2.275 1.412,-3.765c-0,-1.647 -0.471,-2.981 -1.334,-3.922m-14.746,-2.588c1.02,-1.805 2.51,-3.216 4.471,-4.236c1.961,-1.02 4.157,-1.49 6.667,-1.49c2.51,-0 4.706,0.47 6.589,1.49c1.883,1.02 3.373,2.431 4.393,4.314c1.019,1.882 1.568,4 1.568,6.353c0,2.432 -0.549,4.55 -1.568,6.432c-1.02,1.883 -2.51,3.295 -4.471,4.236c-1.961,1.02 -4.158,1.49 -6.668,1.49c-2.51,0 -4.784,-0.47 -6.667,-1.49c-1.882,-1.02 -3.373,-2.431 -4.393,-4.236c-1.019,-1.882 -1.568,-4 -1.568,-6.51c0.078,-2.432 0.627,-4.549 1.647,-6.353" style="fill:#fff;fill-rule:nonzero;"/><path d="M200.736,115.763c1.02,-1.883 2.51,-3.294 4.393,-4.314c1.882,-1.02 4,-1.569 6.353,-1.569c3.295,0 5.883,0.785 7.687,2.275c0.706,0.549 1.255,1.176 1.647,1.882c0.392,0.706 0.549,1.412 0.549,2.04c0,1.098 -0.313,1.882 -1.019,2.51c-0.706,0.627 -1.491,1.019 -2.353,1.255c-0.863,0.235 -1.334,0.235 -1.412,0.078c-0.785,-2.039 -2.275,-3.059 -4.55,-3.059c-1.412,0 -2.51,0.471 -3.373,1.49c-0.862,0.942 -1.333,2.197 -1.333,3.687c-0,1.569 0.471,2.745 1.333,3.765c0.863,0.941 2.04,1.49 3.373,1.49c1.098,0 2.04,-0.313 2.824,-0.784c0.784,-0.549 1.333,-1.255 1.726,-2.196c-0,-0.079 0.157,-0.079 0.392,-0.079c0.471,0 1.098,0.157 1.804,0.393c0.706,0.235 1.333,0.705 1.882,1.255c0.55,0.627 0.785,1.411 0.785,2.353c-0,0.627 -0.157,1.255 -0.549,1.961c-0.392,0.706 -0.942,1.333 -1.726,1.882c-1.804,1.491 -4.314,2.275 -7.608,2.275c-2.432,-0 -4.628,-0.549 -6.432,-1.569c-1.883,-1.02 -3.295,-2.431 -4.314,-4.314c-1.02,-1.883 -1.569,-4 -1.569,-6.354c-0.079,-2.431 0.47,-4.47 1.49,-6.353" style="fill:#fff;fill-rule:nonzero;"/><path d="M224.189,114.429c0,-1.49 0.392,-2.588 1.098,-3.294c0.706,-0.706 1.726,-1.02 2.981,-1.02l0.941,0c1.334,0 2.354,0.314 2.981,1.02c0.706,0.628 1.02,1.804 1.02,3.294l-0,15.061c-0,2.902 -1.334,4.392 -3.922,4.392l-0.941,0c-1.334,0 -2.354,-0.314 -3.06,-1.019c-0.706,-0.706 -1.098,-1.805 -1.098,-3.373l0,-15.061l0,0Zm1.02,-14.04c0.863,-0.784 2.039,-1.177 3.53,-1.177c1.49,0 2.667,0.393 3.529,1.177c0.863,0.784 1.334,1.804 1.334,3.138c-0,1.333 -0.392,2.353 -1.255,3.137c-0.863,0.784 -2.04,1.177 -3.53,1.177c-1.49,-0 -2.667,-0.393 -3.53,-1.177c-0.862,-0.784 -1.333,-1.804 -1.333,-3.137c0,-1.255 0.392,-2.354 1.255,-3.138" style="fill:#fff;fill-rule:nonzero;"/><path d="M251.564,116.783c-0.706,-0.706 -1.726,-1.098 -2.981,-1.098c-1.176,-0 -2.196,0.392 -2.98,1.176c-0.785,0.785 -1.255,1.804 -1.412,3.059l8.549,0c-0.078,-1.412 -0.47,-2.431 -1.176,-3.137m-13.57,-0.863c1.098,-1.883 2.51,-3.373 4.393,-4.471c1.882,-1.098 4,-1.569 6.353,-1.569c2.353,0 4.393,0.471 6.197,1.49c1.804,1.02 3.216,2.354 4.235,4.158c1.02,1.725 1.491,3.765 1.491,5.961l-0,0.392c-0,0.706 -0.157,1.255 -0.471,1.647c-0.314,0.393 -0.706,0.549 -1.412,0.549l-14.825,0c0.079,0.314 0.157,0.55 0.157,0.628c0.314,1.098 0.941,1.961 1.883,2.588c0.941,0.628 2.118,0.942 3.451,0.942c1.333,-0 2.51,-0.236 3.451,-0.785c0.942,-0.549 1.647,-1.176 2.118,-2.039c0,-0.079 0.471,-0.079 1.255,0.078c0.785,0.157 1.49,0.549 2.118,1.02c0.628,0.549 0.941,1.255 0.941,2.353c0,0.785 -0.235,1.491 -0.706,2.197c-0.47,0.627 -1.098,1.255 -1.961,1.725c-1.804,1.02 -4.314,1.569 -7.53,1.569c-4,-0 -7.138,-1.098 -9.412,-3.216c-2.353,-2.118 -3.452,-5.099 -3.452,-8.785c0.157,-2.432 0.706,-4.55 1.726,-6.432" style="fill:#fff;fill-rule:nonzero;"/><path d="M266.154,125.96l-0,-8.785l-0.628,-0c-1.176,-0 -2.039,-0.235 -2.588,-0.784c-0.628,-0.549 -0.863,-1.255 -0.863,-2.275l-0,-0.549c-0,-1.02 0.314,-1.804 0.863,-2.432c0.627,-0.549 1.49,-0.863 2.588,-0.863l0.628,0l-0,-2.274c-0,-1.412 0.313,-2.51 1.019,-3.216c0.706,-0.706 1.726,-1.098 2.981,-1.098l0.784,-0c1.334,-0 2.275,0.313 2.981,0.941c0.706,0.627 1.02,1.725 1.02,3.373l-0,2.274l2.667,0c2.353,0 3.529,1.02 3.529,3.059l0,0.55c0,2.196 -1.176,3.216 -3.608,3.216l-2.745,-0l-0,7.765c-0,1.569 0.627,2.353 1.961,2.353c1.019,0 1.882,-0.471 2.51,-1.49c0.157,-0 0.392,0.157 0.706,0.392c0.314,0.314 0.627,0.706 0.863,1.177c0.235,0.47 0.392,1.098 0.392,1.725c-0,1.177 -0.392,2.275 -1.255,3.138c-0.628,0.627 -1.412,1.098 -2.353,1.49c-1.02,0.314 -2.118,0.549 -3.373,0.549c-5.412,0.079 -8.079,-2.667 -8.079,-8.236" style="fill:#fff;fill-rule:nonzero;"/><path d="M290.784,141.961c-0.785,-0.313 -1.412,-0.706 -1.883,-1.098c-0.471,-0.392 -0.706,-0.706 -0.549,-0.863l3.765,-8c-1.177,-0.236 -1.961,-0.785 -2.275,-1.726l-7.687,-17.57c-0.078,-0.157 0.157,-0.471 0.706,-0.863c0.549,-0.471 1.177,-0.863 1.961,-1.177c0.785,-0.392 1.569,-0.549 2.432,-0.549c2.274,0 3.843,1.412 4.628,4.158l3.451,10.197l3.216,-10.197c0.471,-1.491 1.098,-2.51 1.882,-3.138c0.785,-0.627 1.726,-0.941 2.746,-0.941c0.784,-0 1.569,0.157 2.353,0.549c0.784,0.314 1.412,0.706 1.961,1.176c0.47,0.471 0.706,0.785 0.627,0.942l-10.118,25.728c-0.549,1.411 -1.255,2.431 -2.04,3.059c-0.784,0.627 -1.725,0.941 -2.745,0.941c-0.863,-0.157 -1.647,-0.314 -2.431,-0.628" style="fill:#fff;fill-rule:nonzero;"/><path d="M137.123,22.265l-5.099,-0c-1.412,-0 -2.51,-0.314 -3.216,-1.02c-0.706,-0.706 -1.098,-1.726 -1.098,-3.059l0,-0.157c0,-1.255 0.392,-2.275 1.098,-2.902c0.706,-0.628 1.804,-1.02 3.216,-1.02l19.375,-0c2.902,-0 4.392,1.333 4.392,3.922l0,0.157c0,2.745 -1.49,4.079 -4.392,4.079l-4.864,-0l0,18.04c0,1.412 -0.392,2.51 -1.098,3.216c-0.706,0.785 -1.725,1.098 -3.059,1.098l-1.333,0c-2.589,0 -3.922,-1.49 -3.922,-4.392l-0,-17.962Z" style="fill:#fff;fill-rule:nonzero;"/><path d="M180.656,23.441c1.334,1.804 1.961,4.079 1.961,6.824l0,10.119c0,2.902 -1.333,4.392 -3.922,4.392l-0.941,0c-1.334,0 -2.353,-0.314 -3.059,-1.019c-0.706,-0.706 -1.098,-1.805 -1.098,-3.373l-0,-8.785c-0,-1.099 -0.236,-2.04 -0.785,-2.667c-0.549,-0.628 -1.255,-0.942 -2.118,-0.942c-1.098,0 -1.961,0.314 -2.588,1.02c-0.628,0.628 -0.941,1.569 -0.941,2.745l-0,8.55c-0,2.902 -1.334,4.393 -4.001,4.393l-0.941,-0c-1.255,-0 -2.275,-0.314 -2.981,-1.02c-0.706,-0.706 -1.098,-1.804 -1.098,-3.373l0,-27.845c0,-0.157 0.392,-0.393 1.098,-0.628c0.706,-0.235 1.491,-0.392 2.354,-0.392c1.568,-0 2.902,0.549 3.921,1.569c1.099,1.019 1.569,2.823 1.569,5.333l0,6.668c1.647,-2.824 4.001,-4.236 7.217,-4.236c2.902,-0.078 5.02,0.863 6.353,2.667" style="fill:#fff;fill-rule:nonzero;"/><path d="M200.658,27.598c-0.706,-0.706 -1.726,-1.098 -2.981,-1.098c-1.176,0 -2.196,0.392 -2.98,1.177c-0.785,0.784 -1.255,1.804 -1.412,3.059l8.55,-0c-0,-1.412 -0.393,-2.432 -1.177,-3.138m-13.491,-0.863c1.098,-1.882 2.51,-3.372 4.392,-4.471c1.883,-1.098 4.001,-1.568 6.354,-1.568c2.353,-0 4.392,0.47 6.196,1.49c1.804,1.02 3.216,2.353 4.236,4.157c1.02,1.726 1.49,3.765 1.49,5.962l0,0.392c0,0.706 -0.157,1.255 -0.47,1.647c-0.236,0.392 -0.706,0.549 -1.412,0.549l-14.825,-0c0.078,0.314 0.157,0.549 0.157,0.628c0.314,1.098 0.941,1.96 1.882,2.588c0.942,0.627 2.118,0.941 3.452,0.941c1.333,0 2.51,-0.235 3.451,-0.784c0.941,-0.549 1.647,-1.177 2.118,-2.04c-0,-0.078 0.47,-0.078 1.255,0.079c0.784,0.157 1.49,0.549 2.118,1.02c0.627,0.549 0.941,1.255 0.941,2.353c-0,0.784 -0.235,1.49 -0.706,2.196c-0.471,0.628 -1.098,1.255 -1.961,1.726c-1.804,1.019 -4.314,1.568 -7.53,1.568c-4,0 -7.138,-1.098 -9.413,-3.216c-2.353,-2.117 -3.451,-5.098 -3.451,-8.785c0.078,-2.431 0.627,-4.549 1.726,-6.432" style="fill:#fff;fill-rule:nonzero;"/></svg>