<?xml version="1.0" encoding="UTF-8" standalone="no"?><!DOCTYPE svg PUBLIC "-//W3C//DTD SVG 1.1//EN" "http://www.w3.org/Graphics/SVG/1.1/DTD/svg11.dtd"><svg width="100%" height="100%" viewBox="0 0 625 400" version="1.1" xmlns="http://www.w3.org/2000/svg" xmlns:xlink="http://www.w3.org/1999/xlink" xml:space="preserve" xmlns:serif="http://www.serif.com/" style="fill-rule:evenodd;clip-rule:evenodd;stroke-linejoin:round;stroke-miterlimit:2;"><path d="M312.31,156.271c-23.084,0.706 -41.664,19.286 -42.37,42.37c-0.767,25.129 19.959,45.856 45.089,45.088c23.078,-0.706 41.664,-19.292 42.37,-42.37c0.767,-25.129 -19.959,-45.856 -45.089,-45.088" style="fill:#fff;fill-rule:nonzero;"/><path d="M302.732,212.573l-0,-24.922c-0,-2.519 2.727,-4.091 4.905,-2.833l21.583,12.463c2.182,1.257 2.182,4.405 0,5.662l-21.583,12.463c-2.178,1.258 -4.905,-0.318 -4.905,-2.833" style="fill-opacity:0.3;fill-rule:nonzero;"/><path d="M238.3,136.02c6.789,71.892 -45.959,135.677 -117.851,142.466l-0,0.103c-64.752,6.182 -113.992,58.565 -118.11,121.411l622.661,0l-0,-400l-298.623,0c-56.085,19.005 -93.88,74.589 -88.028,136.117" style="fill:#c41718;fill-rule:nonzero;"/><path d="M557.249,222.72c-2.259,-0.847 -4.518,-1.482 -6.777,-1.976c0.283,-0.212 0.494,-0.353 0.636,-0.495c3.741,-2.823 6.988,-6.424 9.106,-10.659c2.118,-4.377 2.965,-9.248 2.401,-14.049c-0.424,-3.106 -1.342,-6.141 -2.754,-8.895c-2.823,-5.718 -7.624,-10.73 -13.836,-14.26c-16.519,-9.248 -40.945,-8.4 -59.653,-4.588c-5.435,1.059 -10.73,2.118 -16.025,3.035c1.271,-0.988 2.471,-2.118 3.46,-3.176c6,-6.636 8.118,-14.472 4.8,-22.803c-2.894,-7.2 -9.954,-10.165 -17.296,-10.377c-3.882,-0.141 -10.589,1.059 -14.472,1.271c-11.436,0.565 -19.342,-3.954 -30.567,-5.365c-9.036,-1.13 -19.202,-1.342 -27.532,2.965c-11.154,5.788 -15.319,21.531 -8.33,31.979c0.212,0.353 0.494,0.706 0.777,1.059c1.27,1.694 2.753,3.247 4.376,4.588c0.283,0.212 0.495,0.424 0.777,0.636c-20.543,-2.824 -41.721,-8.542 -63.676,-7.201c-12.707,0.777 -26.614,4.236 -36.709,12.354c-8.825,7.06 -13.837,19.767 -9.178,30.638c5.154,11.931 19.837,18.425 32.05,19.626c12.707,1.2 25.767,0.353 38.051,-2.542c14.472,-3.388 28.661,-5.083 43.486,-5.718c2.753,-0.141 5.506,-0.212 8.259,-0.353c-3.953,2.188 -7.412,5.083 -9.953,8.966c-11.86,17.931 3.953,39.603 28.026,42.356c13.907,1.624 27.179,-0.353 40.38,-3.812c12.495,-3.247 25.343,-7.2 38.756,-6.071c12.637,1.13 24.567,4.589 37.062,6.001c11.86,1.341 24.144,-3.107 31.062,-10.943c8.683,-10.024 8.471,-26.261 -6.707,-32.191" style="fill:#fff;fill-rule:nonzero;"/><path d="M295.768,209.025c-0.635,-0.635 -0.917,-1.624 -0.917,-2.965l-0,-19.837c-0,-1.271 0.282,-2.259 0.917,-2.965c0.636,-0.635 1.483,-0.988 2.683,-0.988l1.2,-0c2.471,-0 3.741,1.341 3.741,3.953l0,6.353l8.613,0l0,-6.353c0,-2.612 1.2,-3.953 3.53,-3.953l1.27,-0c1.201,-0 2.118,0.353 2.754,0.988c0.635,0.635 0.917,1.624 0.917,2.965l0,19.908c0,1.27 -0.282,2.259 -0.917,2.965c-0.636,0.635 -1.553,0.988 -2.754,0.988l-1.27,-0c-1.13,-0 -2.047,-0.353 -2.612,-0.988c-0.636,-0.636 -0.918,-1.624 -0.918,-2.965l0,-6.495l-8.613,-0l0,6.495c0,1.27 -0.282,2.259 -0.917,2.965c-0.636,0.635 -1.553,0.988 -2.753,0.988l-1.201,-0c-1.2,-0.071 -2.117,-0.353 -2.753,-1.059" style="fill:#d31116;fill-rule:nonzero;"/><path d="M336.925,200.836l-1.129,0.07c-3.318,0.071 -5.013,0.918 -5.013,2.542c0,0.635 0.212,1.129 0.636,1.482c0.423,0.353 0.988,0.565 1.765,0.565c1.129,0 1.976,-0.282 2.682,-0.847c0.706,-0.565 1.059,-1.341 1.13,-2.33l-0,-1.482l-0.071,-0Zm-10.307,-1.694c2.189,-1.13 5.295,-1.765 9.46,-1.765l0.918,-0c-0,-0.212 -0,-0.424 -0.071,-0.706c-0.212,-1.694 -1.271,-2.471 -3.177,-2.471c-2.118,0 -3.529,0.847 -4.165,2.471c-0.07,-0 -0.212,0.07 -0.423,0.07c-0.212,0 -0.495,0.071 -0.777,0.071c-1.059,-0 -2.047,-0.212 -2.894,-0.635c-0.847,-0.424 -1.271,-1.2 -1.271,-2.33c0,-1.129 0.353,-2.118 1.13,-2.894c1.411,-1.695 4.376,-2.471 8.894,-2.471c3.742,-0 6.425,0.776 8.189,2.259c1.765,1.482 2.612,3.812 2.612,6.848l0,11.718c0,0.212 -0.353,0.424 -0.988,0.636c-0.635,0.211 -1.412,0.282 -2.188,0.282c-1.836,-0 -3.177,-0.706 -3.954,-2.118c-0.282,-0.565 -0.423,-1.059 -0.494,-1.412c-0.706,1.13 -1.623,1.977 -2.894,2.612c-1.271,0.636 -2.612,0.918 -4.165,0.918c-2.118,-0 -3.812,-0.565 -5.083,-1.624c-1.271,-1.059 -1.906,-2.541 -1.906,-4.377c-0.071,-2.188 1.059,-3.882 3.247,-5.082" style="fill:#d31116;fill-rule:nonzero;"/><path d="M361.066,194.624c-0.636,-0.636 -1.553,-0.989 -2.683,-0.989c-1.059,0 -1.976,0.353 -2.682,1.059c-0.706,0.706 -1.13,1.624 -1.271,2.753l7.695,0c-0,-1.2 -0.353,-2.118 -1.059,-2.823m-12.213,-0.777c0.988,-1.694 2.259,-3.036 3.953,-4.024c1.695,-0.988 3.601,-1.412 5.718,-1.412c2.118,0 3.954,0.424 5.577,1.342c1.624,0.917 2.895,2.117 3.812,3.741c0.918,1.553 1.342,3.389 1.342,5.365l-0,0.353c-0,0.636 -0.141,1.13 -0.424,1.483c-0.282,0.353 -0.635,0.494 -1.271,0.494l-13.342,-0c0.071,0.282 0.141,0.494 0.141,0.565c0.283,0.988 0.847,1.764 1.695,2.329c0.847,0.565 1.906,0.847 3.106,0.847c1.2,0 2.259,-0.211 3.106,-0.706c0.847,-0.494 1.482,-1.059 1.906,-1.835c-0,-0.071 0.424,-0.071 1.129,0.141c0.706,0.141 1.342,0.494 1.907,0.918c0.564,0.494 0.847,1.129 0.847,2.118c-0,0.706 -0.212,1.341 -0.636,1.976c-0.423,0.565 -0.988,1.13 -1.765,1.553c-1.623,0.918 -3.882,1.412 -6.777,1.412c-3.6,0 -6.424,-0.988 -8.471,-2.894c-2.118,-1.906 -3.106,-4.589 -3.106,-7.907c0.141,-2.188 0.635,-4.094 1.553,-5.859" style="fill:#d31116;fill-rule:nonzero;"/><path d="M405.119,190.67c1.129,1.483 1.694,3.389 1.694,5.789l0,9.671c0,2.612 -1.2,3.954 -3.6,3.954l-0.847,-0c-1.13,-0 -2.048,-0.283 -2.683,-0.918c-0.635,-0.635 -0.988,-1.624 -0.988,-3.036l-0,-8.188c-0,-1.907 -0.847,-2.895 -2.471,-2.895c-1.13,0 -2.047,0.494 -2.753,1.553l-0,9.53c-0,2.612 -1.2,3.954 -3.601,3.954l-0.776,-0c-1.2,-0 -2.118,-0.283 -2.753,-0.918c-0.636,-0.635 -0.989,-1.624 -0.989,-3.036l0,-8.188c0,-1.977 -0.847,-2.895 -2.471,-2.895c-0.564,0 -1.058,0.141 -1.553,0.424c-0.494,0.282 -0.847,0.635 -1.2,1.129l0,9.53c0,2.612 -1.2,3.954 -3.6,3.954l-0.847,-0c-1.13,-0 -2.047,-0.283 -2.683,-0.918c-0.635,-0.635 -0.988,-1.624 -0.988,-3.036l-0,-16.519c-0,-0.141 0.353,-0.353 0.988,-0.564c0.636,-0.212 1.342,-0.353 2.118,-0.353c1.059,-0 2.047,0.282 2.894,0.847c0.848,0.564 1.412,1.482 1.765,2.824c0.777,-1.201 1.695,-2.189 2.754,-2.824c1.058,-0.706 2.329,-0.989 3.812,-0.989c3.318,0 5.435,1.412 6.494,4.165c0.847,-1.341 1.765,-2.329 2.824,-3.035c1.059,-0.706 2.4,-1.059 4.024,-1.059c2.471,-0.141 4.306,0.565 5.436,2.047" style="fill:#d31116;fill-rule:nonzero;"/><path d="M424.037,195.965c-0.847,-0.918 -1.906,-1.341 -3.247,-1.341c-1.341,-0 -2.4,0.423 -3.247,1.341c-0.847,0.918 -1.271,2.047 -1.271,3.459c-0,1.412 0.424,2.612 1.271,3.459c0.847,0.918 1.906,1.341 3.247,1.341c1.271,0 2.4,-0.423 3.177,-1.341c0.847,-0.918 1.27,-2.047 1.27,-3.388c0.071,-1.483 -0.353,-2.612 -1.2,-3.53m-13.201,-2.33c0.918,-1.623 2.259,-2.894 4.024,-3.812c1.765,-0.918 3.742,-1.341 6.001,-1.341c2.259,-0 4.235,0.423 5.93,1.341c1.694,0.918 3.035,2.189 3.953,3.883c0.918,1.694 1.412,3.6 1.412,5.718c-0,2.188 -0.494,4.094 -1.412,5.789c-0.918,1.694 -2.259,2.965 -4.024,3.812c-1.765,0.918 -3.742,1.341 -6.001,1.341c-2.259,0 -4.306,-0.423 -6,-1.341c-1.694,-0.918 -3.036,-2.189 -3.953,-3.812c-0.918,-1.695 -1.412,-3.601 -1.412,-5.86c0.07,-2.117 0.564,-4.023 1.482,-5.718" style="fill:#d31116;fill-rule:nonzero;"/><path d="M449.874,202.813c0.776,-0.847 1.129,-1.977 1.129,-3.389c0,-1.412 -0.353,-2.541 -1.129,-3.388c-0.706,-0.848 -1.695,-1.271 -2.965,-1.271c-0.918,-0 -1.695,0.212 -2.33,0.635c-0.635,0.424 -1.13,0.989 -1.553,1.765l-0,3.459c-0,1.059 0.423,1.906 1.129,2.542c0.706,0.635 1.624,0.917 2.683,0.917c1.341,0 2.33,-0.423 3.036,-1.27m4.306,-13.06c1.412,0.917 2.541,2.188 3.318,3.812c0.776,1.623 1.2,3.6 1.2,5.789c-0,2.117 -0.424,4.023 -1.2,5.718c-0.777,1.694 -1.906,2.965 -3.318,3.882c-1.412,0.918 -3.106,1.412 -5.012,1.412c-1.412,0 -2.612,-0.353 -3.671,-0.988c-1.059,-0.635 -1.836,-1.553 -2.401,-2.612l0,7.342c0,2.612 -1.2,3.883 -3.529,3.883l-0.847,-0c-1.2,-0 -2.118,-0.283 -2.754,-0.918c-0.635,-0.565 -0.988,-1.624 -0.988,-2.965l0,-24.496c0,-0.142 0.353,-0.353 0.988,-0.565c0.636,-0.212 1.342,-0.353 2.118,-0.353c1.059,-0 1.977,0.282 2.824,0.847c0.847,0.565 1.483,1.412 1.765,2.683c-0,0.07 0.071,0.282 0.071,0.494c0.494,-1.271 1.27,-2.259 2.4,-3.036c1.129,-0.776 2.471,-1.129 3.953,-1.129c2.047,-0.071 3.671,0.353 5.083,1.2" style="fill:#d31116;fill-rule:nonzero;"/><path d="M481.642,190.882c1.2,1.624 1.765,3.671 1.765,6.142l-0,9.107c-0,2.612 -1.2,3.953 -3.53,3.953l-0.847,-0c-1.2,-0 -2.118,-0.283 -2.753,-0.918c-0.636,-0.635 -0.989,-1.624 -0.989,-3.035l0,-7.907c0,-0.988 -0.211,-1.836 -0.706,-2.33c-0.494,-0.564 -1.129,-0.847 -1.906,-0.847c-0.988,0 -1.764,0.283 -2.329,0.918c-0.565,0.565 -0.847,1.412 -0.847,2.471l-0,7.695c-0,2.612 -1.2,3.953 -3.601,3.953l-0.847,-0c-1.129,-0 -2.047,-0.283 -2.682,-0.918c-0.636,-0.635 -0.989,-1.624 -0.989,-3.035l0,-25.132c0,-0.141 0.353,-0.353 0.989,-0.565c0.635,-0.212 1.341,-0.353 2.117,-0.353c1.412,0 2.612,0.494 3.53,1.412c0.988,0.918 1.412,2.541 1.412,4.8l0,6.001c1.483,-2.541 3.6,-3.812 6.495,-3.812c2.682,-0 4.518,0.776 5.718,2.4" style="fill:#d31116;fill-rule:nonzero;"/><path d="M486.937,192.576c0,-1.341 0.353,-2.329 0.989,-2.965c0.635,-0.635 1.553,-0.917 2.682,-0.917l0.847,-0c1.201,-0 2.118,0.282 2.683,0.917c0.635,0.565 0.918,1.624 0.918,2.965l-0,13.554c-0,2.612 -1.2,3.954 -3.53,3.954l-0.847,-0c-1.2,-0 -2.118,-0.283 -2.753,-0.918c-0.636,-0.635 -0.989,-1.624 -0.989,-3.036l0,-13.554Zm0.918,-12.636c0.777,-0.706 1.836,-1.059 3.177,-1.059c1.341,-0 2.4,0.353 3.177,1.059c0.776,0.706 1.2,1.624 1.2,2.824c-0,1.2 -0.353,2.118 -1.13,2.823c-0.776,0.706 -1.835,1.059 -3.176,1.059c-1.342,0 -2.401,-0.353 -3.177,-1.059c-0.777,-0.705 -1.2,-1.623 -1.2,-2.823c-0,-1.2 0.353,-2.118 1.129,-2.824" style="fill:#d31116;fill-rule:nonzero;"/><path d="M499.997,209.095c-0.636,-0.635 -0.989,-1.623 -0.989,-3.035l0,-25.061c0,-0.141 0.353,-0.353 0.989,-0.565c0.635,-0.212 1.341,-0.353 2.117,-0.353c1.412,0 2.612,0.494 3.601,1.412c0.988,0.918 1.482,2.541 1.482,4.8l0,19.838c0,2.612 -1.2,3.953 -3.6,3.953l-0.847,-0c-1.2,-0.071 -2.118,-0.353 -2.753,-0.989" style="fill:#d31116;fill-rule:nonzero;"/><path d="M510.869,192.576c-0,-1.341 0.353,-2.329 0.988,-2.965c0.635,-0.635 1.553,-0.917 2.683,-0.917l0.847,-0c1.2,-0 2.117,0.282 2.682,0.917c0.636,0.565 0.918,1.624 0.918,2.965l-0,13.554c-0,2.612 -1.2,3.954 -3.53,3.954l-0.847,-0c-1.2,-0 -2.118,-0.283 -2.753,-0.918c-0.635,-0.635 -0.988,-1.624 -0.988,-3.036l-0,-13.554Zm0.917,-12.636c0.777,-0.706 1.836,-1.059 3.177,-1.059c1.341,-0 2.4,0.353 3.177,1.059c0.776,0.706 1.2,1.624 1.2,2.824c-0,1.2 -0.353,2.118 -1.13,2.823c-0.776,0.706 -1.835,1.059 -3.176,1.059c-1.342,0 -2.401,-0.353 -3.177,-1.059c-0.777,-0.705 -1.2,-1.623 -1.2,-2.823c-0.071,-1.2 0.353,-2.118 1.129,-2.824" style="fill:#d31116;fill-rule:nonzero;"/><path d="M535.366,200.836l-1.129,0.07c-3.318,0.071 -5.013,0.918 -5.013,2.542c0,0.635 0.212,1.129 0.636,1.482c0.423,0.353 0.988,0.565 1.765,0.565c1.129,0 1.976,-0.282 2.682,-0.847c0.706,-0.565 1.059,-1.341 1.13,-2.33l-0,-1.482l-0.071,-0Zm-10.307,-1.694c2.189,-1.13 5.295,-1.765 9.46,-1.765l0.918,-0c-0,-0.212 -0,-0.424 -0.071,-0.706c-0.212,-1.694 -1.27,-2.471 -3.176,-2.471c-2.118,0 -3.53,0.847 -4.166,2.471c-0.07,-0 -0.211,0.07 -0.423,0.07c-0.212,0 -0.494,0.071 -0.777,0.071c-1.059,-0 -2.047,-0.212 -2.894,-0.635c-0.847,-0.424 -1.271,-1.2 -1.271,-2.33c0,-1.129 0.353,-2.118 1.13,-2.894c1.412,-1.695 4.377,-2.471 8.895,-2.471c3.741,-0 6.424,0.776 8.189,2.259c1.764,1.482 2.612,3.812 2.612,6.848l-0,11.718c-0,0.212 -0.353,0.424 -0.989,0.636c-0.635,0.211 -1.412,0.282 -2.188,0.282c-1.836,-0 -3.177,-0.706 -3.953,-2.118c-0.283,-0.565 -0.424,-1.059 -0.495,-1.412c-0.706,1.13 -1.623,1.977 -2.894,2.612c-1.271,0.636 -2.612,0.918 -4.165,0.918c-2.118,-0 -3.812,-0.565 -5.083,-1.624c-1.271,-1.059 -1.906,-2.541 -1.906,-4.377c-0.07,-2.188 1.059,-3.882 3.247,-5.082" style="fill:#d31116;fill-rule:nonzero;"/><path d="M404.625,244.958c0,-0.636 0.212,-1.271 0.565,-1.906c0.424,-0.636 0.847,-1.201 1.341,-1.624c0.495,-0.424 0.777,-0.635 0.918,-0.494c0.918,0.847 2.118,1.553 3.671,2.188c1.553,0.635 2.965,0.918 4.377,0.918c2.471,-0 3.741,-0.706 3.741,-2.118c0,-0.565 -0.211,-0.918 -0.564,-1.271c-0.424,-0.282 -0.847,-0.494 -1.412,-0.635c-0.565,-0.141 -1.483,-0.353 -2.824,-0.635c-2.753,-0.565 -5.012,-1.483 -6.636,-2.754c-1.624,-1.27 -2.471,-3.106 -2.471,-5.647c0,-2.824 0.989,-5.012 3.036,-6.565c2.047,-1.553 4.871,-2.401 8.612,-2.401c3.46,0 6.213,0.565 8.048,1.765c1.483,0.918 2.189,2.047 2.189,3.389c-0,0.706 -0.212,1.412 -0.636,2.047c-0.423,0.635 -0.917,1.2 -1.412,1.624c-0.494,0.423 -0.847,0.635 -0.917,0.565c-0.918,-0.848 -2.048,-1.554 -3.318,-2.118c-1.271,-0.565 -2.542,-0.848 -3.812,-0.848c-2.401,0 -3.601,0.706 -3.601,2.118c0,0.565 0.283,0.989 0.847,1.271c0.565,0.282 1.553,0.565 2.895,0.847l1.2,0.283c2.965,0.635 5.294,1.553 6.989,2.894c1.694,1.341 2.471,3.106 2.471,5.436c-0,2.965 -1.059,5.224 -3.107,6.847c-2.047,1.553 -5.153,2.33 -9.177,2.33c-3.953,0 -6.918,-0.706 -8.824,-2.047c-1.483,-0.777 -2.189,-1.977 -2.189,-3.459" style="fill:#d31116;fill-rule:nonzero;"/><path d="M444.228,236.133c-0.847,-0.918 -1.906,-1.341 -3.247,-1.341c-1.341,-0 -2.4,0.423 -3.247,1.341c-0.848,0.918 -1.271,2.047 -1.271,3.459c-0,1.412 0.423,2.612 1.271,3.459c0.847,0.918 1.906,1.342 3.247,1.342c1.271,-0 2.4,-0.424 3.177,-1.342c0.847,-0.917 1.27,-2.047 1.27,-3.388c0,-1.483 -0.423,-2.683 -1.2,-3.53m-13.272,-2.329c0.918,-1.624 2.259,-2.895 4.024,-3.813c1.765,-0.917 3.742,-1.341 6.001,-1.341c2.259,0 4.236,0.424 5.93,1.341c1.694,0.918 3.035,2.189 3.953,3.883c0.918,1.694 1.412,3.601 1.412,5.718c-0,2.189 -0.494,4.095 -1.412,5.789c-0.918,1.694 -2.259,2.965 -4.024,3.812c-1.765,0.918 -3.741,1.341 -6,1.341c-2.259,0 -4.307,-0.423 -6.001,-1.341c-1.694,-0.918 -3.035,-2.188 -3.953,-3.812c-0.918,-1.694 -1.412,-3.6 -1.412,-5.859c0.071,-2.189 0.565,-4.095 1.482,-5.718" style="fill:#d31116;fill-rule:nonzero;"/><path d="M455.665,233.874c0.918,-1.694 2.259,-2.965 3.953,-3.883c1.694,-0.917 3.601,-1.411 5.718,-1.411c2.965,-0 5.295,0.706 6.919,2.047c0.635,0.494 1.129,1.059 1.482,1.694c0.353,0.635 0.494,1.271 0.494,1.836c0,0.988 -0.282,1.694 -0.917,2.259c-0.636,0.564 -1.342,0.917 -2.118,1.129c-0.777,0.212 -1.2,0.212 -1.271,0.071c-0.706,-1.836 -2.047,-2.753 -4.094,-2.753c-1.271,-0 -2.259,0.423 -3.036,1.341c-0.776,0.847 -1.2,1.976 -1.2,3.318c-0,1.412 0.424,2.471 1.2,3.388c0.777,0.847 1.836,1.342 3.036,1.342c0.988,-0 1.835,-0.283 2.541,-0.706c0.706,-0.495 1.2,-1.13 1.553,-1.977c0,-0.071 0.141,-0.071 0.353,-0.071c0.424,0 0.988,0.142 1.624,0.353c0.635,0.212 1.2,0.636 1.694,1.13c0.494,0.565 0.706,1.271 0.706,2.118c-0,0.564 -0.141,1.129 -0.494,1.765c-0.353,0.635 -0.847,1.2 -1.553,1.694c-1.624,1.341 -3.883,2.047 -6.848,2.047c-2.188,0 -4.165,-0.494 -5.789,-1.412c-1.694,-0.918 -2.965,-2.188 -3.882,-3.883c-0.918,-1.694 -1.412,-3.6 -1.412,-5.718c-0.071,-2.188 0.423,-4.024 1.341,-5.718" style="fill:#d31116;fill-rule:nonzero;"/><path d="M476.773,232.674c-0,-1.341 0.353,-2.33 0.988,-2.965c0.635,-0.635 1.553,-0.918 2.683,-0.918l0.847,0c1.2,0 2.117,0.283 2.682,0.918c0.636,0.565 0.918,1.624 0.918,2.965l-0,13.554c-0,2.612 -1.2,3.953 -3.53,3.953l-0.847,0c-1.2,0 -2.118,-0.282 -2.753,-0.917c-0.635,-0.636 -0.988,-1.624 -0.988,-3.036l-0,-13.554Zm0.917,-12.636c0.777,-0.706 1.836,-1.059 3.177,-1.059c1.341,-0 2.4,0.353 3.177,1.059c0.776,0.706 1.2,1.623 1.2,2.823c-0,1.2 -0.353,2.118 -1.13,2.824c-0.776,0.706 -1.835,1.059 -3.176,1.059c-1.342,0 -2.401,-0.353 -3.177,-1.059c-0.777,-0.706 -1.2,-1.624 -1.2,-2.824c-0,-1.129 0.353,-2.117 1.129,-2.823" style="fill:#d31116;fill-rule:nonzero;"/><path d="M501.409,234.792c-0.635,-0.635 -1.553,-0.988 -2.683,-0.988c-1.059,-0 -1.976,0.353 -2.682,1.059c-0.706,0.705 -1.13,1.623 -1.271,2.753l7.695,-0c-0.071,-1.271 -0.424,-2.189 -1.059,-2.824m-12.213,-0.777c0.988,-1.694 2.259,-3.035 3.953,-4.024c1.695,-0.988 3.601,-1.411 5.718,-1.411c2.118,-0 3.954,0.423 5.577,1.341c1.624,0.918 2.895,2.118 3.812,3.741c0.918,1.553 1.342,3.389 1.342,5.366l-0,0.353c-0,0.635 -0.141,1.129 -0.424,1.482c-0.282,0.353 -0.635,0.494 -1.27,0.494l-13.343,0c0.071,0.283 0.141,0.494 0.141,0.565c0.283,0.988 0.848,1.765 1.695,2.33c0.847,0.564 1.906,0.847 3.106,0.847c1.2,-0 2.259,-0.212 3.106,-0.706c0.847,-0.494 1.482,-1.059 1.906,-1.836c0,-0.07 0.424,-0.07 1.13,0.071c0.706,0.141 1.341,0.494 1.906,0.918c0.564,0.494 0.847,1.129 0.847,2.117c-0,0.706 -0.212,1.342 -0.636,1.977c-0.423,0.565 -0.988,1.13 -1.764,1.553c-1.624,0.918 -3.883,1.412 -6.777,1.412c-3.601,0 -6.425,-0.988 -8.472,-2.894c-2.118,-1.906 -3.106,-4.589 -3.106,-7.907c0.141,-2.188 0.635,-4.094 1.553,-5.789" style="fill:#d31116;fill-rule:nonzero;"/><path d="M514.54,243.052l0,-7.907l-0.565,-0c-1.059,-0 -1.835,-0.212 -2.329,-0.706c-0.565,-0.494 -0.777,-1.129 -0.777,-2.047l0,-0.494c0,-0.918 0.283,-1.624 0.777,-2.189c0.565,-0.494 1.341,-0.776 2.329,-0.776l0.565,-0l0,-2.048c0,-1.27 0.282,-2.259 0.918,-2.894c0.635,-0.635 1.553,-0.988 2.682,-0.988l0.706,-0c1.2,-0 2.048,0.282 2.683,0.847c0.635,0.565 0.918,1.553 0.918,3.035l-0,2.048l2.4,-0c2.118,-0 3.177,0.917 3.177,2.753l-0,0.494c-0,1.977 -1.059,2.894 -3.248,2.894l-2.47,0l-0,6.989c-0,1.412 0.564,2.118 1.764,2.118c0.918,0 1.695,-0.424 2.259,-1.341c0.142,-0 0.353,0.141 0.636,0.353c0.282,0.282 0.565,0.635 0.776,1.059c0.212,0.423 0.353,0.988 0.353,1.553c0,1.059 -0.353,2.047 -1.129,2.824c-0.565,0.564 -1.271,0.988 -2.118,1.341c-0.918,0.282 -1.906,0.494 -3.036,0.494c-4.871,0.071 -7.271,-2.4 -7.271,-7.412" style="fill:#d31116;fill-rule:nonzero;"/><path d="M536.707,257.453c-0.706,-0.283 -1.271,-0.636 -1.694,-0.988c-0.424,-0.353 -0.636,-0.636 -0.494,-0.777l3.388,-7.201c-1.059,-0.211 -1.765,-0.706 -2.047,-1.553l-6.918,-15.813c-0.071,-0.141 0.141,-0.423 0.635,-0.776c0.494,-0.424 1.059,-0.777 1.765,-1.059c0.706,-0.353 1.412,-0.495 2.188,-0.495c2.047,0 3.459,1.271 4.165,3.742l3.107,9.177l2.894,-9.177c0.424,-1.341 0.988,-2.259 1.694,-2.824c0.706,-0.565 1.553,-0.847 2.471,-0.847c0.706,0 1.412,0.141 2.118,0.494c0.706,0.283 1.271,0.636 1.765,1.059c0.423,0.424 0.635,0.706 0.564,0.847l-9.106,23.155c-0.494,1.271 -1.13,2.189 -1.836,2.753c-0.706,0.565 -1.553,0.848 -2.471,0.848c-0.776,-0.142 -1.482,-0.283 -2.188,-0.565" style="fill:#d31116;fill-rule:nonzero;"/><path d="M398.413,149.725l-4.589,0c-1.271,0 -2.259,-0.282 -2.894,-0.917c-0.636,-0.636 -0.988,-1.553 -0.988,-2.753l-0,-0.142c-0,-1.129 0.352,-2.047 0.988,-2.612c0.635,-0.564 1.623,-0.917 2.894,-0.917l17.437,-0c2.612,-0 3.953,1.2 3.953,3.529l0,0.142c0,2.47 -1.341,3.67 -3.953,3.67l-4.377,0l0,16.237c0,1.271 -0.353,2.259 -0.988,2.895c-0.635,0.706 -1.553,0.988 -2.753,0.988l-1.2,-0c-2.33,-0 -3.53,-1.341 -3.53,-3.953l-0,-16.167Z" style="fill:#d31116;fill-rule:nonzero;"/><path d="M437.59,150.784c1.201,1.624 1.765,3.671 1.765,6.142l0,9.107c0,2.612 -1.2,3.953 -3.529,3.953l-0.848,0c-1.2,0 -2.117,-0.282 -2.753,-0.918c-0.635,-0.635 -0.988,-1.623 -0.988,-3.035l-0,-7.907c-0,-0.988 -0.212,-1.835 -0.706,-2.4c-0.494,-0.565 -1.13,-0.847 -1.906,-0.847c-0.988,-0 -1.765,0.282 -2.33,0.918c-0.564,0.564 -0.847,1.411 -0.847,2.47l0,7.695c0,2.612 -1.2,3.953 -3.6,3.953l-0.847,0c-1.13,0 -2.048,-0.282 -2.683,-0.917c-0.635,-0.636 -0.988,-1.624 -0.988,-3.036l-0,-25.061c-0,-0.141 0.353,-0.353 0.988,-0.565c0.635,-0.211 1.341,-0.353 2.118,-0.353c1.412,0 2.612,0.495 3.53,1.412c0.988,0.918 1.412,2.542 1.412,4.801l-0,6c1.482,-2.541 3.6,-3.812 6.494,-3.812c2.612,-0.07 4.518,0.777 5.718,2.4" style="fill:#d31116;fill-rule:nonzero;"/><path d="M455.594,154.526c-0.636,-0.635 -1.553,-0.988 -2.683,-0.988c-1.059,-0 -1.977,0.353 -2.683,1.059c-0.706,0.706 -1.129,1.623 -1.27,2.753l7.695,-0c-0,-1.271 -0.353,-2.189 -1.059,-2.824m-12.143,-0.777c0.989,-1.694 2.259,-3.035 3.954,-4.023c1.694,-0.989 3.6,-1.412 5.718,-1.412c2.118,-0 3.953,0.423 5.577,1.341c1.624,0.918 2.894,2.118 3.812,3.741c0.918,1.554 1.341,3.389 1.341,5.366l0,0.353c0,0.635 -0.141,1.129 -0.423,1.482c-0.212,0.353 -0.636,0.494 -1.271,0.494l-13.342,0c0.07,0.283 0.141,0.494 0.141,0.565c0.282,0.988 0.847,1.765 1.694,2.33c0.847,0.564 1.906,0.847 3.106,0.847c1.2,-0 2.259,-0.212 3.106,-0.706c0.848,-0.494 1.483,-1.059 1.907,-1.836c-0,-0.07 0.423,-0.07 1.129,0.071c0.706,0.141 1.341,0.494 1.906,0.918c0.565,0.494 0.847,1.129 0.847,2.118c0,0.705 -0.212,1.341 -0.635,1.976c-0.424,0.565 -0.989,1.13 -1.765,1.553c-1.624,0.918 -3.883,1.412 -6.777,1.412c-3.6,0 -6.424,-0.988 -8.471,-2.894c-2.118,-1.906 -3.107,-4.589 -3.107,-7.907c0.071,-2.188 0.565,-4.094 1.553,-5.789" style="fill:#d31116;fill-rule:nonzero;"/></svg>