<?xml version="1.0" encoding="UTF-8" standalone="no"?><!DOCTYPE svg PUBLIC "-//W3C//DTD SVG 1.1//EN" "http://www.w3.org/Graphics/SVG/1.1/DTD/svg11.dtd"><svg width="100%" height="100%" viewBox="0 0 40 40" version="1.1" xmlns="http://www.w3.org/2000/svg" xmlns:xlink="http://www.w3.org/1999/xlink" xml:space="preserve" xmlns:serif="http://www.serif.com/" style="fill-rule:evenodd;clip-rule:evenodd;stroke-miterlimit:10;"><path d="M19.531,1.563c1.18,-0 2.349,0.115 3.506,0.345c1.157,0.23 2.281,0.571 3.371,1.022c1.09,0.452 2.125,1.005 3.106,1.661c0.981,0.655 1.889,1.4 2.723,2.234c0.834,0.835 1.579,1.742 2.235,2.723c0.655,0.981 1.209,2.017 1.66,3.107c0.452,1.09 0.793,2.214 1.023,3.371c0.23,1.157 0.345,2.325 0.345,3.505c-0,1.18 -0.115,2.349 -0.345,3.506c-0.23,1.157 -0.571,2.281 -1.023,3.371c-0.451,1.09 -1.005,2.125 -1.66,3.106c-0.656,0.981 -1.401,1.889 -2.235,2.723c-0.834,0.834 -1.742,1.579 -2.723,2.235c-0.981,0.655 -2.016,1.209 -3.106,1.66c-1.09,0.452 -2.214,0.793 -3.371,1.023c-1.157,0.23 -2.326,0.345 -3.506,0.345c-1.18,-0 -2.348,-0.115 -3.505,-0.345c-1.157,-0.23 -2.281,-0.571 -3.371,-1.023c-1.09,-0.451 -2.126,-1.005 -3.107,-1.66c-0.981,-0.656 -1.888,-1.401 -2.723,-2.235c-0.834,-0.834 -1.579,-1.742 -2.234,-2.723c-0.656,-0.981 -1.209,-2.016 -1.661,-3.106c-0.451,-1.09 -0.792,-2.214 -1.022,-3.371c-0.23,-1.157 -0.346,-2.326 -0.345,-3.506c-0.001,-1.18 0.115,-2.348 0.345,-3.505c0.23,-1.157 0.571,-2.281 1.022,-3.371c0.452,-1.09 1.005,-2.126 1.661,-3.107c0.655,-0.981 1.4,-1.888 2.234,-2.723c0.835,-0.834 1.742,-1.579 2.723,-2.234c0.981,-0.656 2.017,-1.209 3.107,-1.661c1.09,-0.451 2.214,-0.792 3.371,-1.022c1.157,-0.23 2.325,-0.345 3.505,-0.345Z" style="fill:#fff;fill-rule:nonzero;stroke:#e1242a;stroke-width:1.56px;"/><path d="M16.406,10.156l9.375,9.375l-9.375,9.375" style="fill:#fff;fill-rule:nonzero;stroke:#e1242a;stroke-width:1.56px;stroke-linecap:round;stroke-linejoin:round;stroke-miterlimit:4;"/></svg>