<?xml version="1.0" encoding="UTF-8" standalone="no"?><!DOCTYPE svg PUBLIC "-//W3C//DTD SVG 1.1//EN" "http://www.w3.org/Graphics/SVG/1.1/DTD/svg11.dtd"><svg width="100%" height="100%" viewBox="0 0 183 157" version="1.1" xmlns="http://www.w3.org/2000/svg" xmlns:xlink="http://www.w3.org/1999/xlink" xml:space="preserve" xmlns:serif="http://www.serif.com/" style="fill-rule:evenodd;clip-rule:evenodd;stroke-linejoin:round;stroke-miterlimit:2;"><g><g><path d="M18.955,148.038l-0,-31.875c-0,-6.157 -4.044,-8.21 -7.607,-8.21l-9.72,-0l0,48.295l9.72,0c3.563,0 7.607,-2.052 7.607,-8.21m-6.936,-1.026c-0,1.388 -0.49,1.931 -1.335,1.931l-1.63,0l0,-33.624l1.63,-0c0.845,-0 1.329,0.542 1.329,1.931l0.006,29.762Zm16.358,-39.053l-7.432,-0l0,48.289l7.426,0l0.006,-48.289Zm16.898,6.756l0,-6.762l-14.669,-0l-0,48.295l7.485,0l-0,-20.767l5.313,0l0,-7.002l-5.313,-0l-0,-13.764l7.184,0Zm16.178,0l-0,-6.762l-14.67,-0l0,48.295l7.486,0l0,-20.767l5.313,0l-0,-7.002l-5.313,-0l0,-13.764l7.184,0Zm16.179,41.533l-0,-7.364l-7.184,0l0,-14.006l4.709,0l0,-7.366l-4.709,0l0,-12.797l7.184,0l-0,-6.762l-14.67,-0l0,48.295l14.67,0Zm19.68,0c-0.603,-2.655 -0.927,-5.366 -0.967,-8.089l0,-10.262c0,-2.295 -1.387,-3.744 -3.317,-5.011c1.905,-0.956 3.134,-2.879 3.2,-5.01l-0,-11.713c0.182,-2.185 -0.59,-4.343 -2.117,-5.917c-1.527,-1.573 -3.661,-2.41 -5.851,-2.293l-9.119,-0l0,48.295l7.425,0l-0,-20.162l0.966,-0c1.027,-0 1.57,0.844 1.57,1.931l-0,10.745c0.006,2.522 0.31,5.035 0.904,7.487l7.306,-0.001Zm-8.394,-28.796c-0,1.389 -0.483,1.933 -1.268,1.933l-1.084,0l-0,-14.066l1.087,-0c0.785,-0 1.268,0.542 1.268,1.931l-0.003,10.202Zm23.603,28.8l0,-7.368l-7.181,0l-0,-14.006l4.708,0l0,-7.366l-4.708,0l-0,-12.797l7.184,0l0,-6.762l-14.669,-0l-0,48.295l14.666,0.004Zm20.525,-0l-0,-48.296l-6.215,-0l-0,26.197l-4.165,-26.2l-8.632,-0l-0,48.295l6.216,0l0,-25.783l5.308,25.783l7.488,0.004Zm17.872,-40.933l0,-7.366l-17.025,-0l0,7.366l4.95,-0l0,40.929l7.426,0l0,-40.929l4.649,-0Zm15.514,40.929l0,-7.364l-7.249,0l-0,-40.931l-7.42,-0l-0,48.295l14.669,0Zm15.697,-48.295l-6.823,-0l-2.535,15.508l-2.777,-15.516l-7.184,0l5.976,26.873l-0,21.43l7.185,0l-0,-21.43l6.158,-26.865Z" style="fill:#373131;fill-rule:nonzero;"/><path d="M18.653,94.061l-0,-11.349c-0.067,-2.114 -1.267,-4.028 -3.139,-5.011c1.872,-0.982 3.072,-2.896 3.139,-5.01l-0,-10.505c-0,-6.157 -4.347,-8.21 -7.909,-8.21l-9.114,-0l-0,48.295l9.114,0c3.562,0 7.909,-2.052 7.909,-8.21m-7.238,-21.792c0,1.387 -0.484,1.931 -1.268,1.931l-1.087,0l0,-12.859l1.087,0c0.784,0 1.268,0.543 1.268,1.932l0,8.996Zm0,20.765c0,1.389 -0.49,1.932 -1.274,1.932l-1.087,-0l0,-13.462l1.087,0c0.784,0 1.268,0.544 1.268,1.932l0.006,9.598Zm23.476,9.237l-0,-7.364l-7.238,0l0,-40.931l-7.432,-0l0,48.295l14.67,0Zm15.998,0l-0,-7.364l-7.185,0l-0,-14.006l4.709,-0l-0,-7.366l-4.709,0l-0,-12.797l7.185,0l-0,-6.762l-14.67,-0l0,48.295l14.67,0Zm16.179,0l-0,-7.364l-7.185,0l-0,-14.006l4.709,-0l-0,-7.366l-4.709,0l-0,-12.797l7.185,0l-0,-6.762l-14.67,-0l0,48.295l14.67,0Zm18.834,-8.21l-0,-31.875c-0,-6.157 -4.046,-8.21 -7.607,-8.21l-9.72,-0l0,48.295l9.72,0c3.561,0 7.607,-2.052 7.607,-8.21m-6.936,-1.027c-0,1.389 -0.49,1.932 -1.335,1.932l-1.629,-0l-0,-33.625l1.629,0c0.845,0 1.329,0.543 1.329,1.932l0.006,29.761Z" style="fill:#ea5532;fill-rule:nonzero;"/></g></g><path d="M28.735,-0l-0,48.294l14.669,0l0,-7.364l-7.185,-0l0,-14.006l4.709,-0l0,-7.364l-4.709,-0l0,-12.799l7.185,0l0,-6.761l-14.669,-0Zm-7.063,-0l-2.657,24.811l-2.173,-24.811l-4.95,-0l-2.233,24.811l-2.295,-24.811l-7.364,-0l5.795,48.294l6.278,0l2.295,-21.605l2.293,21.611l5.976,0l5.736,-48.3l-6.701,-0Z" style="fill:#ea5532;fill-rule:nonzero;"/></svg>